<?xml version="1.0" standalone="no"?>
<!DOCTYPE svg PUBLIC "-//W3C//DTD SVG 20010904//EN"
 "http://www.w3.org/TR/2001/REC-SVG-20010904/DTD/svg10.dtd">
<svg version="1.0" xmlns="http://www.w3.org/2000/svg"
 width="256.000000pt" height="256.000000pt" viewBox="0 0 256.000000 256.000000"
 preserveAspectRatio="xMidYMid meet">
<metadata>
Created by potrace 1.11, written by Peter Selinger 2001-2013
</metadata>
<g transform="translate(0.000000,256.000000) scale(0.100000,-0.100000)"
fill="#000000" stroke="none">
<path d="M555 1754 c-65 -17 -93 -31 -133 -67 -24 -23 -52 -57 -61 -77 -39
-77 -42 -115 -39 -460 l3 -335 40 0 40 0 5 355 c5 321 7 359 24 393 38 77 109
111 228 110 110 -1 194 -55 218 -141 6 -22 10 -171 10 -367 0 -181 4 -336 9
-343 5 -8 22 -12 42 -10 l34 3 6 345 c4 190 10 358 14 375 5 16 29 50 55 76
40 40 54 48 112 58 125 24 236 -19 280 -108 22 -45 23 -57 28 -396 l5 -350 37
-3 c35 -3 37 -1 43 31 4 19 5 178 3 353 -5 363 -10 394 -79 469 -64 69 -123
90 -254 90 -100 0 -115 -2 -167 -28 -32 -16 -71 -45 -88 -65 l-29 -36 -39 42
c-57 62 -117 85 -232 88 -52 2 -104 1 -115 -2z"/>
<path d="M1834 1736 c-3 -8 -4 -25 -2 -38 3 -22 6 -23 126 -26 l122 -3 -2
-387 -3 -387 -114 -2 c-62 0 -118 -6 -123 -11 -5 -5 -8 -22 -6 -37 l3 -28 255
0 255 0 3 36 3 37 -78 0 c-48 0 -84 5 -91 12 -9 9 -12 118 -12 430 l0 418
-165 0 c-134 0 -167 -3 -171 -14z"/>
</g>
</svg>
