<svg id="gráfico" xmlns="http://www.w3.org/2000/svg" width="482" height="471.81" viewBox="0 0 482 471.81">
  <metadata><?xpacket begin="﻿" id="W5M0MpCehiHzreSzNTczkc9d"?>
<x:xmpmeta xmlns:x="adobe:ns:meta/" x:xmptk="Adobe XMP Core 5.6-c140 79.160451, 2017/05/06-01:08:21        ">
   <rdf:RDF xmlns:rdf="http://www.w3.org/1999/02/22-rdf-syntax-ns#">
      <rdf:Description rdf:about=""/>
   </rdf:RDF>
</x:xmpmeta>
                                                                                                    
                                                                                                    
                                                                                                    
                                                                                                    
                                                                                                    
                                                                                                    
                                                                                                    
                                                                                                    
                                                                                                    
                                                                                                    
                                                                                                    
                                                                                                    
                                                                                                    
                                                                                                    
                                                                                                    
                                                                                                    
                                                                                                    
                                                                                                    
                                                                                                    
                                                                                                    
                           
<?xpacket end="w"?></metadata>
<defs>
    <style>
      .cls-1 {
        fill: #e88aa2;
      }

      .cls-1, .cls-2, .cls-3, .cls-4, .cls-5, .cls-6, .cls-7 {
        fill-rule: evenodd;
      }

      .cls-2 {
        fill: #b1cfe5;
      }

      .cls-3 {
        fill: #e8e8e8;
      }

      .cls-4 {
        fill: #fde3d4;
      }

      .cls-5 {
        fill: #f3c4d0;
      }

      .cls-6 {
        fill: #2e6c99;
        mix-blend-mode: multiply;
      }

      .cls-7 {
        fill: #1a3b47;
      }
    </style>
  </defs>
  <path id="Dimension" class="cls-1" d="M622.993,1987.81H141L219.43,1814.6h34.559v10.6H228.831l-66.292,147.57H601.453L542.137,1825.2H507.85v-10.6h41.462Z" transform="translate(-141 -1516)"/>
  <path id="barra" class="cls-2" d="M503.9,1516.04l-57.488,16.41V1901.2h57.167Z" transform="translate(-141 -1516)"/>
  <path id="barra-2" data-name="barra" class="cls-3" d="M442.092,1515.99L384.6,1532.4v368.8h57.167Z" transform="translate(-141 -1516)"/>
  <path id="barra-3" data-name="barra" class="cls-4" d="M380.6,1515.99l-57.488,16.41v368.8h57.167Z" transform="translate(-141 -1516)"/>
  <path id="barra-4" data-name="barra" class="cls-5" d="M318.717,1516.04l-57.488,16.41V1901.2H318.4Z" transform="translate(-141 -1516)"/>
  <path id="Gestión_unificada" data-name="Gestión unificada" class="cls-6" d="M305.76,1695.38c0.046,0.4.075,0.82,0.088,1.29s0.02,0.91.02,1.34a6.712,6.712,0,0,1-.269,1.98,3.3,3.3,0,0,1-.91,1.48,4.193,4.193,0,0,1-1.712.92,9.3,9.3,0,0,1-2.686.32h-1.82a9.656,9.656,0,0,1-2.763-.33,4.065,4.065,0,0,1-1.7-.95,3.347,3.347,0,0,1-.861-1.49,7.429,7.429,0,0,1-.239-1.95q0-.24.009-0.57c0.007-.22.017-0.45,0.03-0.7s0.029-.49.049-0.75,0.037-.51.053-0.75,0.033-.46.049-0.67,0.031-.38.044-0.52h-1.1c-0.02.1-.048,0.29-0.084,0.55s-0.073.58-.112,0.95-0.073.78-.1,1.23-0.044.93-.044,1.41a8.872,8.872,0,0,0,.132,1.55,5.524,5.524,0,0,0,.441,1.4,4.712,4.712,0,0,0,.812,1.19,4.578,4.578,0,0,0,1.257.93,6.851,6.851,0,0,0,1.776.6,11.724,11.724,0,0,0,2.352.22h1.82a9.94,9.94,0,0,0,3.219-.45,5.4,5.4,0,0,0,2.1-1.22,4.438,4.438,0,0,0,1.139-1.86,7.721,7.721,0,0,0,.343-2.36q0-.63-0.039-1.23t-0.093-1.14c-0.036-.36-0.075-0.68-0.118-0.99s-0.079-.56-0.112-0.78h-7.573v1.35h6.6Zm-0.117-12.06q0.059,0.375.117,0.84t0.1,0.96c0.026,0.33.048,0.66,0.064,0.99s0.024,0.65.024,0.95a5.481,5.481,0,0,1-.254,1.83,2.5,2.5,0,0,1-.744,1.11,2.74,2.74,0,0,1-1.213.56,8.2,8.2,0,0,1-1.653.15h-0.245v-7.75h-0.665a9.355,9.355,0,0,0-2.368.27,4.487,4.487,0,0,0-1.727.82,3.477,3.477,0,0,0-1.056,1.41,5.279,5.279,0,0,0-.357,2.04,5.151,5.151,0,0,0,.362,2.03,3.541,3.541,0,0,0,1.046,1.4,4.358,4.358,0,0,0,1.688.82,8.769,8.769,0,0,0,2.275.27H301.8a9.622,9.622,0,0,0,2.358-.25,3.7,3.7,0,0,0,1.648-.82,3.39,3.39,0,0,0,.969-1.51,7.415,7.415,0,0,0,.318-2.34,16.75,16.75,0,0,0-.132-2.21c-0.088-.65-0.178-1.17-0.269-1.57h-1.047Zm-4.911,1.01v6.38l-0.177-.02a7.866,7.866,0,0,1-1.379-.12,3.391,3.391,0,0,1-1.2-.48,2.5,2.5,0,0,1-.847-0.97,4.266,4.266,0,0,1,0-3.22,2.431,2.431,0,0,1,.832-0.97,3.3,3.3,0,0,1,1.194-.48,8.031,8.031,0,0,1,1.408-.12h0.177Zm5.958-3.18c0.032-.13.072-0.32,0.117-0.56s0.09-.52.132-0.84,0.079-.65.108-1.01,0.044-.72.044-1.09a6.375,6.375,0,0,0-.245-1.91,3.316,3.316,0,0,0-.65-1.22,2.165,2.165,0,0,0-.94-0.65,3.505,3.505,0,0,0-2.186-.03,2.216,2.216,0,0,0-.842.55,4.453,4.453,0,0,0-.724,1,17.013,17.013,0,0,0-.724,1.54l-0.322.78a10.542,10.542,0,0,1-.48,1.07,3.4,3.4,0,0,1-.465.7,1.534,1.534,0,0,1-.528.38,1.951,1.951,0,0,1-.67.11,1.482,1.482,0,0,1-.734-0.16,1.081,1.081,0,0,1-.465-0.48,2.438,2.438,0,0,1-.239-0.82,8.6,8.6,0,0,1-.069-1.17c0-.21.007-0.44,0.02-0.7s0.029-.53.049-0.8,0.044-.55.073-0.83,0.064-.55.1-0.8h-1.008c-0.039.13-.081,0.31-0.127,0.53s-0.086.47-.122,0.75-0.067.59-.093,0.92-0.039.65-.039,0.99a5.325,5.325,0,0,0,.64,2.94,2.24,2.24,0,0,0,2.011.95,2.823,2.823,0,0,0,1.037-.18,2.689,2.689,0,0,0,.841-0.57,4.515,4.515,0,0,0,.715-0.95,9.907,9.907,0,0,0,.645-1.36l0.3-.78c0.2-.49.385-0.9,0.548-1.21a3.264,3.264,0,0,1,.5-0.75,1.419,1.419,0,0,1,.553-0.38,2.139,2.139,0,0,1,.71-0.11,1.959,1.959,0,0,1,.743.14,1.3,1.3,0,0,1,.568.44,2.192,2.192,0,0,1,.362.83,5.465,5.465,0,0,1,.127,1.28c0,0.33-.012.66-0.034,1s-0.053.66-.089,0.96-0.07.6-.1,0.85-0.059.48-.079,0.65h1.028Zm-0.763-15.21c0.013,0.12.026,0.25,0.039,0.41s0.024,0.32.034,0.48,0.016,0.33.02,0.49,0,0.31,0,.44a2.557,2.557,0,0,1-.073.68,0.758,0.758,0,0,1-.264.4,1.165,1.165,0,0,1-.519.18,6.312,6.312,0,0,1-.846.05h-7.269v-3.13h-1.106v3.13h-2.925v1.3h2.925v2.38h1l0.108-2.38h7.328a5.745,5.745,0,0,0,1.272-.12,1.979,1.979,0,0,0,.836-0.42,1.65,1.65,0,0,0,.46-0.76,4.158,4.158,0,0,0,.142-1.17c0-.17-0.008-0.35-0.025-0.53s-0.035-.36-0.058-0.54-0.049-.34-0.079-0.49-0.057-.29-0.083-0.4h-0.919Zm0.9-3.2h-10.88v1.32h10.88v-1.32Zm-13-.02h-2.485v1.34h2.485v-1.34Zm6.976-11.49a5.782,5.782,0,0,0-3.821,1.11,5.131,5.131,0,0,0,0,6.86,5.782,5.782,0,0,0,3.821,1.11h1.154a5.775,5.775,0,0,0,3.831-1.11,5.157,5.157,0,0,0,0-6.86,5.775,5.775,0,0,0-3.831-1.11H300.8Zm1.154,1.31a7.849,7.849,0,0,1,1.8.18,3.283,3.283,0,0,1,1.242.58,2.317,2.317,0,0,1,.719,1,4.128,4.128,0,0,1,.23,1.46,4.186,4.186,0,0,1-.23,1.47,2.348,2.348,0,0,1-.719,1.01,3.131,3.131,0,0,1-1.242.57,7.289,7.289,0,0,1-1.8.19H300.8a7.216,7.216,0,0,1-1.8-.19,2.97,2.97,0,0,1-1.233-.58,2.3,2.3,0,0,1-.714-1.01,4.749,4.749,0,0,1,0-2.92,2.332,2.332,0,0,1,.714-1,3.24,3.24,0,0,1,1.233-.58,7.77,7.77,0,0,1,1.8-.18h1.154Zm-7.474,3.05-3.082-2.98v1.61l3.082,2.69v-1.32Zm12.347-15.21h-6.9a11.041,11.041,0,0,0-1.834.14,3.311,3.311,0,0,0-1.341.53,2.274,2.274,0,0,0-.816,1.05,4.653,4.653,0,0,0-.274,1.73,5.562,5.562,0,0,0,.342,1.92,15.385,15.385,0,0,0,.822,1.84h-0.881v1.3h10.88v-1.3h-8.982a15.247,15.247,0,0,1-.758-1.94,5.766,5.766,0,0,1-.279-1.7,3.14,3.14,0,0,1,.162-1.09,1.413,1.413,0,0,1,.528-0.69,2.411,2.411,0,0,1,.964-0.36,8.6,8.6,0,0,1,1.467-.11h6.9v-1.32Zm0-14.82h-10.88v1.31H304.9a14.37,14.37,0,0,1,.778,1.91,5.658,5.658,0,0,1,.289,1.73,3.14,3.14,0,0,1-.162,1.09,1.486,1.486,0,0,1-.528.7,2.569,2.569,0,0,1-.969.37,8.79,8.79,0,0,1-1.472.1h-6.888v1.29h6.888a10.408,10.408,0,0,0,1.756-.14,3.744,3.744,0,0,0,1.345-.51,2.42,2.42,0,0,0,.856-1.02,3.942,3.942,0,0,0,.3-1.65,6.2,6.2,0,0,0-.313-1.93,13.03,13.03,0,0,0-.832-1.94h0.881v-1.31Zm0-11.33h-6.9a11.041,11.041,0,0,0-1.834.14,3.311,3.311,0,0,0-1.341.53,2.274,2.274,0,0,0-.816,1.05,4.653,4.653,0,0,0-.274,1.73,5.52,5.52,0,0,0,.342,1.92,15.385,15.385,0,0,0,.822,1.84h-0.881v1.31h10.88v-1.31h-8.982a15.247,15.247,0,0,1-.758-1.94,5.766,5.766,0,0,1-.279-1.7,3.14,3.14,0,0,1,.162-1.09,1.387,1.387,0,0,1,.528-0.68,2.412,2.412,0,0,1,.964-0.37,8.6,8.6,0,0,1,1.467-.11h6.9v-1.32Zm0-4.16h-10.88v1.32h10.88v-1.32Zm-13-.02h-2.485v1.34h2.485v-1.34Zm13-11.35h-10.88v6.21H294.46a10.387,10.387,0,0,1-1.061-.05,1.714,1.714,0,0,1-.71-0.22,0.932,0.932,0,0,1-.391-0.47,2.407,2.407,0,0,1-.117-0.83q0-.24.009-0.51c0.007-.18.015-0.35,0.025-0.52s0.021-.33.034-0.47,0.023-.26.029-0.35h-0.919c-0.02.1-.043,0.21-0.069,0.36s-0.05.31-.073,0.49-0.042.37-.059,0.56-0.024.38-.024,0.56a3.669,3.669,0,0,0,.239,1.45,1.888,1.888,0,0,0,.68.84,2.473,2.473,0,0,0,1.052.37,9.358,9.358,0,0,0,1.355.09h1.487v2.17h0.979l0.127-2.17h9.774v-1.3h-9.774V1600h9.774v-1.3Zm-13-.02h-2.485v1.34h2.485v-1.34Zm11.917-9.76c0.085,0.68.143,1.25,0.176,1.7s0.049,0.82.049,1.11a5.123,5.123,0,0,1-.167,1.38,2.086,2.086,0,0,1-.611,1.01,2.8,2.8,0,0,1-1.218.61,7.814,7.814,0,0,1-2,.21H300.78a7.668,7.668,0,0,1-1.966-.21,2.924,2.924,0,0,1-1.218-.62,2.135,2.135,0,0,1-.617-1.01,4.922,4.922,0,0,1-.171-1.37q0-.465.044-1.14c0.03-.45.08-1.01,0.152-1.67h-1c-0.072.33-.147,0.75-0.225,1.25a11.507,11.507,0,0,0-.117,1.74,4.083,4.083,0,0,0,1.242,3.28,5.811,5.811,0,0,0,3.874,1.07h1.194a8.659,8.659,0,0,0,2.3-.26,3.925,3.925,0,0,0,1.595-.79,3.183,3.183,0,0,0,.924-1.36,5.714,5.714,0,0,0,.3-1.94,11.478,11.478,0,0,0-.113-1.7q-0.113-.75-0.23-1.29h-1.007Zm1.086-9.71h-7.416a7.4,7.4,0,0,0-1.664.16,2.342,2.342,0,0,0-1.169.6,2.749,2.749,0,0,0-.689,1.25,8.087,8.087,0,0,0-.225,2.11c0,0.36.011,0.68,0.034,0.97s0.052,0.56.088,0.82,0.077,0.51.122,0.76,0.092,0.49.137,0.75H297q-0.05-.465-0.088-0.87c-0.026-.27-0.049-0.53-0.069-0.79s-0.034-.51-0.044-0.76-0.014-.51-0.014-0.78a7.885,7.885,0,0,1,.112-1.48,1.8,1.8,0,0,1,.406-0.88,1.546,1.546,0,0,1,.8-0.43,6.687,6.687,0,0,1,1.3-.1h0.919v1.85a15.049,15.049,0,0,0,.132,2.12,4.429,4.429,0,0,0,.5,1.57,2.458,2.458,0,0,0,1.013.97,3.714,3.714,0,0,0,1.683.32h0.3a3.075,3.075,0,0,0,2.378-.82,3.525,3.525,0,0,0,.753-2.43,6.442,6.442,0,0,0-.1-1.15,7.085,7.085,0,0,0-.254-1,7.947,7.947,0,0,0-.338-0.83,7.228,7.228,0,0,0-.357-0.66h0.783v-1.27Zm-1.742,1.33a4.945,4.945,0,0,1,.318.58,7.21,7.21,0,0,1,.318.79,7.327,7.327,0,0,1,.245.93,5.24,5.24,0,0,1,.1,1.01,3.71,3.71,0,0,1-.1.91,1.753,1.753,0,0,1-.343.7,1.518,1.518,0,0,1-.626.44,2.645,2.645,0,0,1-.954.15h-0.381a2.976,2.976,0,0,1-1.174-.2,1.482,1.482,0,0,1-.7-0.64,3.111,3.111,0,0,1-.337-1.14,13.506,13.506,0,0,1-.088-1.68v-1.85h3.727Zm1.742-12.01H291.339v1.3h4.569c-0.091.55-.155,1.04-0.191,1.46s-0.053.83-.053,1.22a6.737,6.737,0,0,0,.244,1.88,3.289,3.289,0,0,0,.842,1.43,3.915,3.915,0,0,0,1.585.9,7.9,7.9,0,0,0,2.465.32h1.34a8.64,8.64,0,0,0,2.246-.25,3.95,3.95,0,0,0,1.536-.77,3.06,3.06,0,0,0,.885-1.25,4.906,4.906,0,0,0,.284-1.74,5.8,5.8,0,0,0-.078-0.96,6.605,6.605,0,0,0-.206-0.87,6.887,6.887,0,0,0-.284-0.77c-0.1-.24-0.208-0.45-0.313-0.64h0.617v-1.26Zm-1.663,1.3a10.848,10.848,0,0,1,.552,1.37,4.959,4.959,0,0,1,.25,1.6,3.707,3.707,0,0,1-.211,1.32,1.987,1.987,0,0,1-.675.91,3,3,0,0,1-1.188.52,7.978,7.978,0,0,1-1.752.17H300.8a7.884,7.884,0,0,1-2-.21,2.822,2.822,0,0,1-1.228-.63,2.1,2.1,0,0,1-.616-1.03,5.38,5.38,0,0,1-.171-1.43q0-.42.054-1.11c0.035-.45.089-0.95,0.161-1.48h8.16Zm1.663-11.71h-7.416a8.088,8.088,0,0,0-1.664.15,2.438,2.438,0,0,0-1.169.61,2.647,2.647,0,0,0-.689,1.25,8.035,8.035,0,0,0-.225,2.11q0,0.525.034,0.96c0.023,0.29.052,0.57,0.088,0.83s0.077,0.51.122,0.75,0.092,0.5.137,0.75H297c-0.033-.3-0.062-0.59-0.088-0.86s-0.049-.54-0.069-0.79-0.034-.51-0.044-0.76-0.014-.52-0.014-0.78a7.812,7.812,0,0,1,.112-1.48,1.761,1.761,0,0,1,.406-0.88,1.417,1.417,0,0,1,.8-0.43,6.587,6.587,0,0,1,1.3-.11h0.919v1.86a15.252,15.252,0,0,0,.132,2.12,4.308,4.308,0,0,0,.5,1.56,2.4,2.4,0,0,0,1.013.97,3.706,3.706,0,0,0,1.683.33h0.3a3.077,3.077,0,0,0,2.378-.83,3.491,3.491,0,0,0,.753-2.43,6.524,6.524,0,0,0-.1-1.15,6.61,6.61,0,0,0-.254-0.99,8.153,8.153,0,0,0-.338-0.84,7.228,7.228,0,0,0-.357-0.66h0.783v-1.26Zm-1.742,1.32a5.928,5.928,0,0,1,.318.58,7.407,7.407,0,0,1,.318.8,7.327,7.327,0,0,1,.245.93,5.137,5.137,0,0,1,.1,1,3.8,3.8,0,0,1-.1.92,1.711,1.711,0,0,1-.343.69,1.432,1.432,0,0,1-.626.44,2.645,2.645,0,0,1-.954.15h-0.381a2.807,2.807,0,0,1-1.174-.2,1.433,1.433,0,0,1-.7-0.64,3.055,3.055,0,0,1-.337-1.13,13.793,13.793,0,0,1-.088-1.69v-1.85h3.727Z" transform="translate(-141 -1516)"/>
  <path id="Estrategia_de_datos" data-name="Estrategia de datos" class="cls-6" d="M365.944,1711.45H364.76v7.26h-5.968v-6.77h-1.223v6.77h-5.312v-7.26h-1.2v8.6h14.891v-8.6Zm-0.137-1.85c0.033-.13.072-0.31,0.117-0.56s0.09-.52.132-0.83,0.079-.65.108-1.01,0.044-.72.044-1.09a6.365,6.365,0,0,0-.244-1.91,3.435,3.435,0,0,0-.651-1.23,2.256,2.256,0,0,0-.939-0.65,3.453,3.453,0,0,0-1.111-.18,3.191,3.191,0,0,0-1.076.16,2.308,2.308,0,0,0-.841.54,4.709,4.709,0,0,0-.724,1.01,15.074,15.074,0,0,0-.724,1.53l-0.323.79a11.392,11.392,0,0,1-.48,1.07,3.3,3.3,0,0,1-.464.69,1.32,1.32,0,0,1-.529.38,1.735,1.735,0,0,1-.67.11,1.607,1.607,0,0,1-.734-0.15,1.187,1.187,0,0,1-.464-0.48,2.534,2.534,0,0,1-.24-0.82,8.6,8.6,0,0,1-.069-1.17c0-.21.007-0.45,0.02-0.71s0.029-.52.049-0.8,0.044-.55.073-0.82,0.064-.55.1-0.8h-1.008c-0.039.13-.081,0.3-0.127,0.53s-0.086.47-.122,0.75-0.067.59-.093,0.91-0.039.66-.039,0.99a5.385,5.385,0,0,0,.641,2.95,2.259,2.259,0,0,0,2.01.95,2.63,2.63,0,0,0,1.037-.19,2.512,2.512,0,0,0,.842-0.56,4.547,4.547,0,0,0,.714-0.95,11.169,11.169,0,0,0,.646-1.36l0.3-.79c0.2-.49.385-0.89,0.548-1.21a3.146,3.146,0,0,1,.5-0.74,1.416,1.416,0,0,1,.552-0.38,2.144,2.144,0,0,1,.71-0.11,1.955,1.955,0,0,1,.743.13,1.381,1.381,0,0,1,.568.44,2.344,2.344,0,0,1,.362.83,5.562,5.562,0,0,1,.127,1.29q0,0.495-.034.99c-0.023.34-.052,0.66-0.088,0.97s-0.07.59-.1,0.85-0.059.47-.078,0.64h1.027Zm-0.763-15.21q0.02,0.18.039,0.42c0.013,0.15.024,0.31,0.034,0.48s0.017,0.32.02,0.48,0,0.31,0,.45a2.551,2.551,0,0,1-.074.68,0.7,0.7,0,0,1-.264.39,1.057,1.057,0,0,1-.518.19,6.59,6.59,0,0,1-.847.04H356.17v-3.13h-1.105v3.13h-2.926v1.31h2.926v2.37h1l0.108-2.37H363.5a5.153,5.153,0,0,0,1.272-.13,1.765,1.765,0,0,0,.836-0.42,1.592,1.592,0,0,0,.46-0.76,4.036,4.036,0,0,0,.142-1.16c0-.17-0.008-0.35-0.024-0.53s-0.036-.37-0.059-0.54-0.049-.34-0.078-0.5-0.057-.28-0.083-0.4h-0.92Zm0.9-3.06h-8.981a5.871,5.871,0,0,1-.455-0.98,9.12,9.12,0,0,1-.49-2.14c-0.035-.35-0.053-0.68-0.053-0.98h-1.184a9.4,9.4,0,0,0,.054.99,7.272,7.272,0,0,0,.186,1.05,6.743,6.743,0,0,0,.357,1.06,5.345,5.345,0,0,0,.567,1h-0.88v1.29h10.879v-1.29Zm0-12.54h-7.416a8.014,8.014,0,0,0-1.663.16,2.5,2.5,0,0,0-1.169.6,2.741,2.741,0,0,0-.69,1.25,8.087,8.087,0,0,0-.225,2.11c0,0.36.011,0.68,0.034,0.97s0.052,0.57.088,0.82,0.077,0.51.122,0.76,0.092,0.5.137,0.75h0.959c-0.032-.31-0.062-0.6-0.088-0.87s-0.049-.53-0.068-0.79-0.035-.51-0.044-0.76-0.015-.51-0.015-0.78a7.78,7.78,0,0,1,.112-1.47,1.849,1.849,0,0,1,.406-0.89,1.47,1.47,0,0,1,.8-0.42,5.9,5.9,0,0,1,1.3-.11h0.92v1.85a15.3,15.3,0,0,0,.132,2.13,4.334,4.334,0,0,0,.5,1.56,2.389,2.389,0,0,0,1.012.97,3.706,3.706,0,0,0,1.683.33h0.3a3.076,3.076,0,0,0,2.378-.83,3.508,3.508,0,0,0,.753-2.43,6.442,6.442,0,0,0-.1-1.15,6.61,6.61,0,0,0-.254-0.99,7.155,7.155,0,0,0-.338-0.84,6.991,6.991,0,0,0-.357-0.66h0.783v-1.27Zm-1.742,1.33a4.945,4.945,0,0,1,.318.58,6.833,6.833,0,0,1,.318.79,7.327,7.327,0,0,1,.245.93,5.24,5.24,0,0,1,.1,1.01,3.663,3.663,0,0,1-.1.91,1.677,1.677,0,0,1-.342.7,1.531,1.531,0,0,1-.626.44,2.653,2.653,0,0,1-.954.15h-0.382a2.807,2.807,0,0,1-1.174-.2,1.482,1.482,0,0,1-.7-0.64,3.071,3.071,0,0,1-.337-1.14,13.506,13.506,0,0,1-.088-1.68v-1.85H364.2Zm0.842-8.83c0.013,0.12.026,0.25,0.039,0.41s0.024,0.32.034,0.48,0.017,0.33.02,0.49,0,0.3,0,.44a2.551,2.551,0,0,1-.074.68,0.758,0.758,0,0,1-.264.4,1.165,1.165,0,0,1-.518.18,6.34,6.34,0,0,1-.847.05H356.17v-3.13h-1.105v3.13h-2.926v1.3h2.926v2.38h1l0.108-2.38H363.5a5.153,5.153,0,0,0,1.272-.13,1.85,1.85,0,0,0,.836-0.41,1.694,1.694,0,0,0,.46-0.76,4.158,4.158,0,0,0,.142-1.17c0-.17-0.008-0.35-0.024-0.53s-0.036-.36-0.059-0.54-0.049-.34-0.078-0.5-0.057-.28-0.083-0.39h-0.92Zm-0.284-9.97c0.039,0.25.078,0.53,0.118,0.83s0.071,0.63.1,0.96,0.048,0.66.064,0.99,0.024,0.66.024,0.96a5.458,5.458,0,0,1-.254,1.82,2.593,2.593,0,0,1-.743,1.12,2.738,2.738,0,0,1-1.214.55,7.486,7.486,0,0,1-1.653.16h-0.245v-7.75h-0.665a9.382,9.382,0,0,0-2.368.26,4.631,4.631,0,0,0-1.726.82,3.471,3.471,0,0,0-1.057,1.41,5.332,5.332,0,0,0-.357,2.05,5.117,5.117,0,0,0,.362,2.02,3.567,3.567,0,0,0,1.047,1.41,4.491,4.491,0,0,0,1.687.82,9.247,9.247,0,0,0,2.275.26h0.763a10.178,10.178,0,0,0,2.358-.24,3.933,3.933,0,0,0,1.649-.82,3.488,3.488,0,0,0,.968-1.52,7.392,7.392,0,0,0,.318-2.33,16.642,16.642,0,0,0-.132-2.21c-0.088-.66-0.178-1.18-0.269-1.57H364.76Zm-4.911,1v6.39l-0.176-.02a7.871,7.871,0,0,1-1.38-.13,3.215,3.215,0,0,1-1.2-.48,2.44,2.44,0,0,1-.847-0.97,4.259,4.259,0,0,1,0-3.22,2.5,2.5,0,0,1,.831-0.97,3.121,3.121,0,0,1,1.194-.47,7.169,7.169,0,0,1,1.409-.13h0.176Zm6.5-10.37a6.2,6.2,0,0,1,1.316.12,1.81,1.81,0,0,1,.89.43,1.783,1.783,0,0,1,.5.88,5.677,5.677,0,0,1,.157,1.46c0,0.66-.018,1.3-0.054,1.95s-0.08,1.25-.132,1.85h0.968c0.026-.14.059-0.35,0.1-0.62s0.077-.57.113-0.92,0.067-.71.093-1.09,0.039-.78.039-1.17a7.041,7.041,0,0,0-.259-2.07,2.889,2.889,0,0,0-.768-1.28,2.723,2.723,0,0,0-1.253-.66,7.282,7.282,0,0,0-1.712-.19h-11.28c-0.04.31-.077,0.63-0.113,0.95s-0.065.64-.088,0.96-0.042.63-.059,0.93-0.024.58-.024,0.84a7.135,7.135,0,0,0,.3,2.21,3.572,3.572,0,0,0,.92,1.5,3.693,3.693,0,0,0,1.56.85,7.758,7.758,0,0,0,2.226.28H361.2a8.227,8.227,0,0,0,2.333-.29,3.671,3.671,0,0,0,1.551-.87,3.253,3.253,0,0,0,.861-1.44,7.421,7.421,0,0,0,.22-2.77c-0.029-.26-0.065-0.51-0.108-0.74s-0.086-.44-0.132-0.64-0.084-.34-0.117-0.46h0.538Zm-1.644,0c0.033,0.12.072,0.27,0.118,0.46s0.088,0.4.127,0.63,0.072,0.48.1,0.74a7.588,7.588,0,0,1,.039.76,5.163,5.163,0,0,1-.2,1.52,2.145,2.145,0,0,1-.65,1.02,2.858,2.858,0,0,1-1.2.59,7.959,7.959,0,0,1-1.839.18H359.79a7.431,7.431,0,0,1-1.751-.18,2.8,2.8,0,0,1-1.209-.6,2.422,2.422,0,0,1-.7-1.08,5.353,5.353,0,0,1-.225-1.67c0-.21,0-0.42.015-0.65s0.024-.44.044-0.66,0.039-.41.058-0.59,0.039-.34.059-0.47H364.7Zm1.243-5.55H355.065v1.33h10.879v-1.33Zm-13-.02h-2.485v1.35h2.485v-1.35Zm13-10.48h-7.416a8.07,8.07,0,0,0-1.663.15,2.429,2.429,0,0,0-1.169.61,2.64,2.64,0,0,0-.69,1.25,8.035,8.035,0,0,0-.225,2.11q0,0.525.034,0.96c0.023,0.29.052,0.57,0.088,0.83s0.077,0.51.122,0.75,0.092,0.5.137,0.75h0.959c-0.032-.3-0.062-0.59-0.088-0.86s-0.049-.54-0.068-0.79-0.035-.51-0.044-0.76-0.015-.52-0.015-0.78a7.9,7.9,0,0,1,.112-1.48,1.769,1.769,0,0,1,.406-0.88,1.419,1.419,0,0,1,.8-0.43,6.576,6.576,0,0,1,1.3-.11h0.92v1.86a15.252,15.252,0,0,0,.132,2.12,4.27,4.27,0,0,0,.5,1.56,2.389,2.389,0,0,0,1.012.97,3.706,3.706,0,0,0,1.683.33h0.3a3.076,3.076,0,0,0,2.378-.83,3.491,3.491,0,0,0,.753-2.43,6.524,6.524,0,0,0-.1-1.15,6.61,6.61,0,0,0-.254-0.99,7.934,7.934,0,0,0-.338-0.84,6.991,6.991,0,0,0-.357-0.66h0.783v-1.26Zm-1.742,1.32a5.928,5.928,0,0,1,.318.58,7.017,7.017,0,0,1,.318.8,7.327,7.327,0,0,1,.245.93,5.137,5.137,0,0,1,.1,1,3.746,3.746,0,0,1-.1.92,1.7,1.7,0,0,1-.342.69,1.531,1.531,0,0,1-.626.44,2.653,2.653,0,0,1-.954.15h-0.382a2.807,2.807,0,0,1-1.174-.2,1.433,1.433,0,0,1-.7-0.64,3.074,3.074,0,0,1-.337-1.13,13.793,13.793,0,0,1-.088-1.69v-1.85H364.2Zm1.742-15.65H350.456v1.31h4.569c-0.091.55-.154,1.03-0.19,1.46s-0.054.83-.054,1.21a6.687,6.687,0,0,0,.244,1.88,3.242,3.242,0,0,0,.842,1.43,3.934,3.934,0,0,0,1.585.91,8.213,8.213,0,0,0,2.465.32h1.341a8.6,8.6,0,0,0,2.245-.26,3.939,3.939,0,0,0,1.536-.76,3.027,3.027,0,0,0,.885-1.26,4.884,4.884,0,0,0,.284-1.74,5.8,5.8,0,0,0-.078-0.96,7.165,7.165,0,0,0-.489-1.64q-0.158-.345-0.313-0.63h0.616v-1.27Zm-1.663,1.31a10.832,10.832,0,0,1,.553,1.36,5.049,5.049,0,0,1,.249,1.61,3.73,3.73,0,0,1-.21,1.32,2.055,2.055,0,0,1-.675.91,3.318,3.318,0,0,1-1.189.52,8.033,8.033,0,0,1-1.751.16h-1.341a7.889,7.889,0,0,1-2-.21,2.92,2.92,0,0,1-1.227-.62,2.189,2.189,0,0,1-.617-1.03,5.38,5.38,0,0,1-.171-1.43c0-.29.018-0.65,0.054-1.11s0.089-.95.161-1.48h8.16Zm0.479-12.32q0.058,0.375.118,0.84c0.039,0.3.071,0.62,0.1,0.95s0.048,0.66.064,1,0.024,0.65.024,0.95a5.522,5.522,0,0,1-.254,1.83,2.5,2.5,0,0,1-.743,1.11,2.749,2.749,0,0,1-1.214.56,8.188,8.188,0,0,1-1.653.15h-0.245v-7.75h-0.665a9.864,9.864,0,0,0-2.368.26,4.631,4.631,0,0,0-1.726.82,3.437,3.437,0,0,0-1.057,1.42,5.279,5.279,0,0,0-.357,2.04,5.169,5.169,0,0,0,.362,2.03,3.606,3.606,0,0,0,1.047,1.4,4.491,4.491,0,0,0,1.687.82,8.79,8.79,0,0,0,2.275.26h0.763a10.178,10.178,0,0,0,2.358-.24,3.819,3.819,0,0,0,1.649-.82,3.431,3.431,0,0,0,.968-1.52,7.306,7.306,0,0,0,.318-2.33,16.75,16.75,0,0,0-.132-2.21c-0.088-.65-0.178-1.18-0.269-1.57H364.76Zm-4.911,1v6.39l-0.176-.02a7.018,7.018,0,0,1-1.38-.13,3.2,3.2,0,0,1-1.2-.47,2.584,2.584,0,0,1-.847-0.97,3.607,3.607,0,0,1-.318-1.62,3.562,3.562,0,0,1,.314-1.61,2.467,2.467,0,0,1,.831-0.96,3.133,3.133,0,0,1,1.194-.48,8.022,8.022,0,0,1,1.409-.13h0.176Zm6.1-15.29H350.456v1.3h4.569c-0.091.55-.154,1.04-0.19,1.46s-0.054.83-.054,1.22a6.737,6.737,0,0,0,.244,1.88,3.3,3.3,0,0,0,.842,1.43,3.922,3.922,0,0,0,1.585.9,7.9,7.9,0,0,0,2.465.32h1.341a8.632,8.632,0,0,0,2.245-.25,3.95,3.95,0,0,0,1.536-.77,3.06,3.06,0,0,0,.885-1.25,4.884,4.884,0,0,0,.284-1.74,5.8,5.8,0,0,0-.078-0.96,6.992,6.992,0,0,0-.206-0.88,7.508,7.508,0,0,0-.283-0.76c-0.105-.24-0.209-0.45-0.313-0.64h0.616v-1.26Zm-1.663,1.3a11.486,11.486,0,0,1,.553,1.36,5.093,5.093,0,0,1,.249,1.61,3.73,3.73,0,0,1-.21,1.32,2,2,0,0,1-.675.91,3,3,0,0,1-1.189.52,7.975,7.975,0,0,1-1.751.17h-1.341a7.889,7.889,0,0,1-2-.21,2.818,2.818,0,0,1-1.227-.63,2.1,2.1,0,0,1-.617-1.03,5.38,5.38,0,0,1-.171-1.43q0-.42.054-1.11c0.036-.46.089-0.95,0.161-1.48h8.16Zm1.663-11.71h-7.416a8.07,8.07,0,0,0-1.663.15,2.429,2.429,0,0,0-1.169.61,2.64,2.64,0,0,0-.69,1.25,8.035,8.035,0,0,0-.225,2.11q0,0.525.034,0.96c0.023,0.29.052,0.57,0.088,0.83s0.077,0.51.122,0.75,0.092,0.5.137,0.75h0.959c-0.032-.3-0.062-0.59-0.088-0.87s-0.049-.53-0.068-0.78-0.035-.51-0.044-0.77-0.015-.51-0.015-0.78a7.853,7.853,0,0,1,.112-1.47,1.769,1.769,0,0,1,.406-0.88,1.419,1.419,0,0,1,.8-0.43,6.576,6.576,0,0,1,1.3-.11h0.92v1.85a15.3,15.3,0,0,0,.132,2.13,4.27,4.27,0,0,0,.5,1.56,2.389,2.389,0,0,0,1.012.97,3.706,3.706,0,0,0,1.683.33h0.3a3.076,3.076,0,0,0,2.378-.83,3.491,3.491,0,0,0,.753-2.43,6.524,6.524,0,0,0-.1-1.15,6.61,6.61,0,0,0-.254-0.99,7.934,7.934,0,0,0-.338-0.84,6.991,6.991,0,0,0-.357-0.66h0.783v-1.26Zm-1.742,1.32a4.945,4.945,0,0,1,.318.58,7.017,7.017,0,0,1,.318.8,7.327,7.327,0,0,1,.245.93,5.137,5.137,0,0,1,.1,1,3.746,3.746,0,0,1-.1.92,1.7,1.7,0,0,1-.342.69,1.531,1.531,0,0,1-.626.44,2.653,2.653,0,0,1-.954.15h-0.382a2.807,2.807,0,0,1-1.174-.2,1.433,1.433,0,0,1-.7-0.64,3.074,3.074,0,0,1-.337-1.13,13.793,13.793,0,0,1-.088-1.69v-1.85H364.2Zm0.842-8.83c0.013,0.12.026,0.25,0.039,0.41s0.024,0.32.034,0.48,0.017,0.33.02,0.49,0,0.31,0,.44a2.5,2.5,0,0,1-.074.68,0.758,0.758,0,0,1-.264.4,1.165,1.165,0,0,1-.518.19c-0.219.02-.5,0.04-0.847,0.04H356.17v-3.13h-1.105v3.13h-2.926v1.3h2.926v2.38h1l0.108-2.38H363.5a5.745,5.745,0,0,0,1.272-.12,1.967,1.967,0,0,0,.836-0.42,1.642,1.642,0,0,0,.46-0.76,4.062,4.062,0,0,0,.142-1.17c0-.17-0.008-0.34-0.024-0.53s-0.036-.36-0.059-0.54-0.049-.34-0.078-0.49-0.057-.29-0.083-0.4h-0.92Zm-5.127-10.37a5.779,5.779,0,0,0-3.82,1.11,5.128,5.128,0,0,0,0,6.86,5.834,5.834,0,0,0,3.82,1.1h1.155a5.829,5.829,0,0,0,3.83-1.1,5.157,5.157,0,0,0,0-6.86,5.774,5.774,0,0,0-3.83-1.11h-1.155Zm1.155,1.3a7.787,7.787,0,0,1,1.8.19,3.14,3.14,0,0,1,1.242.58,2.262,2.262,0,0,1,.72,1,4.152,4.152,0,0,1,.229,1.46,4.211,4.211,0,0,1-.229,1.47,2.262,2.262,0,0,1-.72,1,3.009,3.009,0,0,1-1.242.58,7.275,7.275,0,0,1-1.8.19h-1.155a7.216,7.216,0,0,1-1.795-.19,3.1,3.1,0,0,1-1.233-.58,2.363,2.363,0,0,1-.714-1.01,4.749,4.749,0,0,1,0-2.92,2.273,2.273,0,0,1,.714-1,3.1,3.1,0,0,1,1.233-.58,7.723,7.723,0,0,1,1.795-.19h1.155Zm4.735-3.18c0.033-.13.072-0.31,0.117-0.55s0.09-.52.132-0.84,0.079-.65.108-1.01,0.044-.72.044-1.09a6.411,6.411,0,0,0-.244-1.91,3.435,3.435,0,0,0-.651-1.23,2.231,2.231,0,0,0-.939-0.64,3.508,3.508,0,0,0-2.187-.03,2.213,2.213,0,0,0-.841.55,4.392,4.392,0,0,0-.724,1,15.354,15.354,0,0,0-.724,1.54l-0.323.78a10.324,10.324,0,0,1-.48,1.07,3.055,3.055,0,0,1-.464.69,1.32,1.32,0,0,1-.529.38,1.731,1.731,0,0,1-.67.12,1.6,1.6,0,0,1-.734-0.16,1.074,1.074,0,0,1-.464-0.48,2.534,2.534,0,0,1-.24-0.82,8.6,8.6,0,0,1-.069-1.17c0-.21.007-0.45,0.02-0.7s0.029-.53.049-0.8,0.044-.55.073-0.83,0.064-.55.1-0.8h-1.008c-0.039.13-.081,0.31-0.127,0.53s-0.086.47-.122,0.75-0.067.59-.093,0.92-0.039.65-.039,0.99a5.347,5.347,0,0,0,.641,2.94,2.259,2.259,0,0,0,2.01.95,2.823,2.823,0,0,0,1.037-.18,2.7,2.7,0,0,0,.842-0.57,4.547,4.547,0,0,0,.714-0.95,10.5,10.5,0,0,0,.646-1.36l0.3-.78c0.2-.5.385-0.9,0.548-1.22a3.372,3.372,0,0,1,.5-0.74,1.416,1.416,0,0,1,.552-0.38,2.144,2.144,0,0,1,.71-0.11,2.17,2.17,0,0,1,.743.13,1.327,1.327,0,0,1,.568.45,2.192,2.192,0,0,1,.362.83,5.412,5.412,0,0,1,.127,1.28c0,0.33-.011.66-0.034,1s-0.052.66-.088,0.96-0.07.59-.1,0.85-0.059.47-.078,0.64h1.027Z" transform="translate(-141 -1516)"/>
  <path id="Inteligencia_distribuida" data-name="Inteligencia distribuida" class="cls-6" d="M428.391,1748.15H413.5v1.35h14.891v-1.35Zm0-11.46h-6.9a10,10,0,0,0-1.834.15,3.3,3.3,0,0,0-1.341.52,2.363,2.363,0,0,0-.817,1.06,4.6,4.6,0,0,0-.274,1.73,5.507,5.507,0,0,0,.343,1.91,14.706,14.706,0,0,0,.822,1.84h-0.881v1.31h10.88v-1.31h-8.982a15.145,15.145,0,0,1-.758-1.93,5.881,5.881,0,0,1-.279-1.71,3.08,3.08,0,0,1,.162-1.08,1.413,1.413,0,0,1,.528-0.69,2.4,2.4,0,0,1,.964-0.36,7.674,7.674,0,0,1,1.467-.11h6.9v-1.33Zm-0.9-8.4c0.014,0.12.027,0.26,0.04,0.42s0.024,0.31.034,0.48,0.016,0.32.019,0.48,0,0.31,0,.45a2.557,2.557,0,0,1-.073.68,0.7,0.7,0,0,1-.264.39,1.057,1.057,0,0,1-.519.19,6.563,6.563,0,0,1-.846.04h-7.269v-3.13h-1.106v3.13h-2.925v1.31h2.925v2.37h1l0.108-2.37h7.328a5.153,5.153,0,0,0,1.272-.13,1.775,1.775,0,0,0,.836-0.42,1.6,1.6,0,0,0,.46-0.76,4.071,4.071,0,0,0,.142-1.16c0-.17-0.009-0.35-0.025-0.53s-0.036-.37-0.058-0.54-0.049-.34-0.079-0.5-0.057-.28-0.083-0.4h-0.92Zm-0.283-9.96c0.039,0.24.078,0.52,0.117,0.83s0.072,0.63.1,0.96,0.047,0.66.064,0.99,0.024,0.65.024,0.95a5.507,5.507,0,0,1-.254,1.83,2.511,2.511,0,0,1-.744,1.11,2.74,2.74,0,0,1-1.213.56,8.2,8.2,0,0,1-1.653.15H423.4v-7.75h-0.665a9.355,9.355,0,0,0-2.368.27,4.487,4.487,0,0,0-1.727.82,3.477,3.477,0,0,0-1.056,1.41,5.3,5.3,0,0,0-.358,2.05,5.117,5.117,0,0,0,.362,2.02,3.553,3.553,0,0,0,1.047,1.4,4.351,4.351,0,0,0,1.688.82,8.769,8.769,0,0,0,2.275.27h0.763a9.633,9.633,0,0,0,2.358-.25,3.7,3.7,0,0,0,1.648-.82,3.39,3.39,0,0,0,.969-1.51,7.415,7.415,0,0,0,.318-2.34,16.592,16.592,0,0,0-.132-2.2c-0.088-.66-0.178-1.18-0.269-1.57h-1.047Zm-4.912,1v6.38l-0.176-.02a7.866,7.866,0,0,1-1.379-.12,3.4,3.4,0,0,1-1.2-.48,2.508,2.508,0,0,1-.846-0.97,4.266,4.266,0,0,1,0-3.22,2.431,2.431,0,0,1,.832-0.97,3.3,3.3,0,0,1,1.193-.48,8.042,8.042,0,0,1,1.409-.12H422.3Zm6.1-5.03H412.9v1.31h15.488v-1.31Zm0-4.3h-10.88v1.33h10.88V1710Zm-13-.01H412.9v1.34h2.485v-1.34Zm13.4-9.63a6.2,6.2,0,0,1,1.316.12,1.9,1.9,0,0,1,.89.43,1.8,1.8,0,0,1,.5.88,5.682,5.682,0,0,1,.156,1.46q0,0.99-.053,1.95c-0.036.64-.08,1.26-0.133,1.85h0.969c0.026-.14.059-0.35,0.1-0.62s0.076-.57.112-0.91,0.067-.71.093-1.1,0.039-.78.039-1.17a7.007,7.007,0,0,0-.259-2.07,2.889,2.889,0,0,0-.768-1.28,2.816,2.816,0,0,0-1.252-.66,7.289,7.289,0,0,0-1.712-.19H417.511c-0.039.31-.076,0.63-0.112,0.95s-0.065.65-.088,0.96-0.043.63-.059,0.93-0.025.58-.025,0.84a7.089,7.089,0,0,0,.3,2.21,3.57,3.57,0,0,0,.919,1.5,3.823,3.823,0,0,0,1.561.86,8.141,8.141,0,0,0,2.226.27h1.409a8.232,8.232,0,0,0,2.333-.29,3.671,3.671,0,0,0,1.551-.87,3.263,3.263,0,0,0,.861-1.44,7.421,7.421,0,0,0,.22-2.77c-0.03-.26-0.066-0.5-0.108-0.74s-0.086-.44-0.132-0.63-0.085-.35-0.117-0.47h0.538Zm-1.644,0c0.033,0.12.072,0.27,0.117,0.46s0.089,0.4.128,0.63,0.072,0.48.1,0.74a7.307,7.307,0,0,1,.04.76,5.116,5.116,0,0,1-.2,1.52,2.22,2.22,0,0,1-.651,1.03,2.839,2.839,0,0,1-1.2.58,7.908,7.908,0,0,1-1.839.19h-1.409a6.909,6.909,0,0,1-1.752-.19,2.9,2.9,0,0,1-1.208-.59,2.455,2.455,0,0,1-.7-1.09,5.353,5.353,0,0,1-.225-1.67c0-.21,0-0.42.014-0.65s0.025-.44.044-0.66,0.039-.41.059-0.59,0.039-.34.059-0.47h8.619Zm0.059-12.31c0.039,0.24.078,0.52,0.117,0.83s0.072,0.63.1,0.96,0.047,0.66.064,0.99,0.024,0.65.024,0.95a5.507,5.507,0,0,1-.254,1.83,2.511,2.511,0,0,1-.744,1.11,2.74,2.74,0,0,1-1.213.56,8.2,8.2,0,0,1-1.653.15H423.4v-7.75h-0.665a9.355,9.355,0,0,0-2.368.27,4.487,4.487,0,0,0-1.727.82,3.477,3.477,0,0,0-1.056,1.41,5.3,5.3,0,0,0-.358,2.05,5.117,5.117,0,0,0,.362,2.02,3.483,3.483,0,0,0,1.047,1.4,4.351,4.351,0,0,0,1.688.82,8.769,8.769,0,0,0,2.275.27h0.763a9.633,9.633,0,0,0,2.358-.25,3.7,3.7,0,0,0,1.648-.82,3.39,3.39,0,0,0,.969-1.51,7.415,7.415,0,0,0,.318-2.34,16.592,16.592,0,0,0-.132-2.2c-0.088-.66-0.178-1.18-0.269-1.57h-1.047Zm-4.912,1v6.38l-0.176-.02a7.866,7.866,0,0,1-1.379-.12,3.4,3.4,0,0,1-1.2-.48,2.438,2.438,0,0,1-.846-0.97,4.266,4.266,0,0,1,0-3.22,2.431,2.431,0,0,1,.832-0.97,3.3,3.3,0,0,1,1.193-.48,8.042,8.042,0,0,1,1.409-.12H422.3Zm6.1-12.16h-6.9a11.041,11.041,0,0,0-1.834.14,3.311,3.311,0,0,0-1.341.53,2.282,2.282,0,0,0-.817,1.05,4.673,4.673,0,0,0-.274,1.73,5.521,5.521,0,0,0,.343,1.92,15.385,15.385,0,0,0,.822,1.84h-0.881v1.31h10.88v-1.31h-8.982a15.247,15.247,0,0,1-.758-1.94,5.766,5.766,0,0,1-.279-1.7,3.14,3.14,0,0,1,.162-1.09,1.387,1.387,0,0,1,.528-0.68,2.406,2.406,0,0,1,.964-0.37,8.586,8.586,0,0,1,1.467-.11h6.9v-1.32Zm-1.086-9.59q0.126,1.035.176,1.71c0.032,0.45.049,0.82,0.049,1.11a5.175,5.175,0,0,1-.167,1.38,2.094,2.094,0,0,1-.611,1.01,2.8,2.8,0,0,1-1.218.61,7.814,7.814,0,0,1-2,.21h-1.194a7.668,7.668,0,0,1-1.966-.21,2.924,2.924,0,0,1-1.218-.62,2.135,2.135,0,0,1-.617-1.01,4.973,4.973,0,0,1-.171-1.37q0-.465.044-1.14t0.152-1.68h-1q-0.108.51-.225,1.26a11.4,11.4,0,0,0-.118,1.74,4.083,4.083,0,0,0,1.243,3.28,5.809,5.809,0,0,0,3.874,1.07h1.194a8.659,8.659,0,0,0,2.3-.26,4.062,4.062,0,0,0,1.6-.79,3.192,3.192,0,0,0,.924-1.36,5.714,5.714,0,0,0,.3-1.94,11.478,11.478,0,0,0-.113-1.7c-0.075-.5-0.151-0.93-0.23-1.3h-1.007Zm1.086-3.53h-10.88v1.33h10.88v-1.33Zm-13-.02H412.9v1.35h2.485v-1.35Zm13-10.49h-7.416a8.024,8.024,0,0,0-1.664.16,2.514,2.514,0,0,0-1.169.6,2.75,2.75,0,0,0-.69,1.25,8.087,8.087,0,0,0-.225,2.11c0,0.36.012,0.68,0.035,0.97s0.052,0.57.088,0.82,0.076,0.51.122,0.76,0.091,0.5.137,0.75h0.959q-0.049-.465-0.088-0.87c-0.026-.27-0.049-0.53-0.069-0.79s-0.034-.51-0.044-0.76-0.014-.51-0.014-0.78a7.7,7.7,0,0,1,.112-1.47,1.831,1.831,0,0,1,.406-0.89,1.467,1.467,0,0,1,.8-0.42,5.9,5.9,0,0,1,1.3-.11h0.919v1.85a15.3,15.3,0,0,0,.132,2.13,4.354,4.354,0,0,0,.5,1.56,2.392,2.392,0,0,0,1.013.97,3.7,3.7,0,0,0,1.683.33h0.3a3.074,3.074,0,0,0,2.377-.83,3.5,3.5,0,0,0,.754-2.43,6.442,6.442,0,0,0-.1-1.15,6.61,6.61,0,0,0-.254-0.99,7.333,7.333,0,0,0-.338-0.84,7.481,7.481,0,0,0-.357-0.66h0.783v-1.27Zm-1.742,1.33a4.945,4.945,0,0,1,.318.58,7.21,7.21,0,0,1,.318.79,7.327,7.327,0,0,1,.245.93,5.239,5.239,0,0,1,.1,1.01,3.713,3.713,0,0,1-.1.91,1.69,1.69,0,0,1-.343.7,1.518,1.518,0,0,1-.626.44,2.645,2.645,0,0,1-.954.15h-0.381a2.807,2.807,0,0,1-1.174-.2,1.477,1.477,0,0,1-.7-0.64,3.052,3.052,0,0,1-.337-1.14,13.506,13.506,0,0,1-.088-1.68v-1.85h3.727Zm1.742-15.65H412.9v1.3h4.569c-0.091.55-.155,1.04-0.191,1.46s-0.054.84-.054,1.22a6.736,6.736,0,0,0,.245,1.88,3.24,3.24,0,0,0,.841,1.43,4.06,4.06,0,0,0,1.585.91,8.25,8.25,0,0,0,2.466.31h1.34a8.64,8.64,0,0,0,2.246-.25,3.957,3.957,0,0,0,1.536-.77,3,3,0,0,0,.885-1.25,4.906,4.906,0,0,0,.284-1.74,5.688,5.688,0,0,0-.079-0.96,6.452,6.452,0,0,0-.205-0.87,6.887,6.887,0,0,0-.284-0.77c-0.1-.23-0.208-0.45-0.313-0.64h0.617v-1.26Zm-1.664,1.3a11.325,11.325,0,0,1,.553,1.37,5,5,0,0,1,.25,1.61,3.707,3.707,0,0,1-.211,1.32,1.959,1.959,0,0,1-.675.9,3,3,0,0,1-1.189.52,7.962,7.962,0,0,1-1.751.17h-1.34a7.884,7.884,0,0,1-2-.21,2.925,2.925,0,0,1-1.228-.62,2.187,2.187,0,0,1-.616-1.03,5.458,5.458,0,0,1-.171-1.44q0-.42.053-1.11c0.036-.45.09-0.95,0.162-1.48h8.159Zm1.664-5.54h-10.88v1.32h10.88v-1.32Zm-13-.02H412.9v1.34h2.485v-1.34Zm12.866-2.43c0.032-.13.071-0.32,0.117-0.56s0.09-.52.132-0.84,0.078-.65.108-1.01,0.044-.72.044-1.09a6.375,6.375,0,0,0-.245-1.91,3.45,3.45,0,0,0-.65-1.23,2.228,2.228,0,0,0-.94-0.64,3.505,3.505,0,0,0-2.186-.03,2.216,2.216,0,0,0-.842.55,4.453,4.453,0,0,0-.724,1,17.013,17.013,0,0,0-.724,1.54l-0.323.78a10.343,10.343,0,0,1-.479,1.07,3.4,3.4,0,0,1-.465.7,1.544,1.544,0,0,1-.528.38,1.951,1.951,0,0,1-.67.11,1.482,1.482,0,0,1-.734-0.16,1.071,1.071,0,0,1-.465-0.48,2.51,2.51,0,0,1-.239-0.82,8.6,8.6,0,0,1-.069-1.17c0-.21.007-0.44,0.02-0.7s0.029-.53.049-0.8,0.044-.55.073-0.83,0.064-.55.1-0.8h-1.008c-0.039.13-.081,0.31-0.127,0.53s-0.087.47-.122,0.75-0.067.59-.093,0.92-0.04.65-.04,0.99a5.324,5.324,0,0,0,.641,2.94,2.24,2.24,0,0,0,2.011.95,2.827,2.827,0,0,0,1.037-.18,2.689,2.689,0,0,0,.841-0.57,4.479,4.479,0,0,0,.714-0.95,9.787,9.787,0,0,0,.646-1.36l0.3-.78c0.2-.49.385-0.9,0.548-1.21a3.264,3.264,0,0,1,.5-0.75,1.419,1.419,0,0,1,.553-0.38,2.133,2.133,0,0,1,.709-0.11,1.964,1.964,0,0,1,.744.14,1.225,1.225,0,0,1,.567.44,2.161,2.161,0,0,1,.362.83,5.406,5.406,0,0,1,.128,1.28c0,0.33-.012.66-0.035,1s-0.052.66-.088,0.96-0.07.59-.1,0.85-0.059.48-.079,0.65h1.028Zm-0.764-15.21c0.014,0.12.027,0.25,0.04,0.41s0.024,0.32.034,0.48,0.016,0.33.019,0.49,0,0.31,0,.44a2.557,2.557,0,0,1-.073.68,0.758,0.758,0,0,1-.264.4,1.165,1.165,0,0,1-.519.18,6.312,6.312,0,0,1-.846.05h-7.269v-3.13h-1.106v3.13h-2.925v1.3h2.925v2.38h1l0.108-2.38h7.328a5.745,5.745,0,0,0,1.272-.12,1.979,1.979,0,0,0,.836-0.42,1.65,1.65,0,0,0,.46-0.76,4.2,4.2,0,0,0,.142-1.17c0-.17-0.009-0.35-0.025-0.53s-0.036-.36-0.058-0.54-0.049-.34-0.079-0.49-0.057-.29-0.083-0.4h-0.92Zm0.9-3.06h-8.982a5.952,5.952,0,0,1-.455-0.98,9.6,9.6,0,0,1-.313-1.07,9.169,9.169,0,0,1-.176-1.07c-0.036-.36-0.054-0.68-0.054-0.98h-1.184a9.7,9.7,0,0,0,.054.99,7.949,7.949,0,0,0,.186,1.05,6.994,6.994,0,0,0,.357,1.05,5.371,5.371,0,0,0,.568,1.01h-0.881v1.28h10.88v-1.28Zm0-6.99h-10.88v1.32h10.88v-1.32Zm-13-.02H412.9v1.34h2.485v-1.34Zm6.712-11.41a8.474,8.474,0,0,0-2.226.25,3.742,3.742,0,0,0-1.517.77,3.072,3.072,0,0,0-.87,1.31,5.721,5.721,0,0,0-.279,1.89c0,0.21.011,0.43,0.034,0.68a6.517,6.517,0,0,0,.118.75c0.055,0.25.125,0.52,0.21,0.78a6.3,6.3,0,0,0,.3.78H412.9v1.31H428.41c0.052-.44.095-0.83,0.127-1.18s0.057-.67.074-0.96,0.027-.56.034-0.82,0.01-.53.01-0.8a7.1,7.1,0,0,0-.284-2.12,3.439,3.439,0,0,0-.9-1.48,3.764,3.764,0,0,0-1.6-.88,8.563,8.563,0,0,0-2.367-.28h-1.4Zm1.4,1.32a7.425,7.425,0,0,1,1.922.21,2.916,2.916,0,0,1,1.228.61,2.267,2.267,0,0,1,.651,1.06,5.463,5.463,0,0,1,.19,1.54c0,0.41-.009.83-0.029,1.25s-0.049.83-.088,1.22H418.93a4.425,4.425,0,0,1-.274-0.74c-0.072-.27-0.129-0.54-0.171-0.79s-0.072-.51-0.088-0.74-0.025-.43-0.025-0.58a4.5,4.5,0,0,1,.186-1.39,1.966,1.966,0,0,1,.616-0.94,2.61,2.61,0,0,1,1.15-.54,8.056,8.056,0,0,1,1.776-.17h1.4Zm4.892-12.07h-10.88v1.3h8.952a14.506,14.506,0,0,1,.778,1.91,5.738,5.738,0,0,1,.289,1.73,3.14,3.14,0,0,1-.162,1.09,1.4,1.4,0,0,1-.528.7,2.419,2.419,0,0,1-.969.37,8.683,8.683,0,0,1-1.472.11h-6.888v1.28H424.4a9.462,9.462,0,0,0,1.756-.14,3.409,3.409,0,0,0,1.345-.51,2.368,2.368,0,0,0,.856-1.02,3.925,3.925,0,0,0,.3-1.64,6.1,6.1,0,0,0-.313-1.93,13.589,13.589,0,0,0-.832-1.95h0.881v-1.3Zm0-4.24h-10.88v1.32h10.88v-1.32Zm-13-.02H412.9v1.34h2.485v-1.34Zm13-10.91H412.9v1.3h4.569c-0.091.55-.155,1.04-0.191,1.46s-0.054.83-.054,1.22a6.736,6.736,0,0,0,.245,1.88,3.3,3.3,0,0,0,.841,1.43,3.928,3.928,0,0,0,1.585.9,7.911,7.911,0,0,0,2.466.32h1.34a8.64,8.64,0,0,0,2.246-.25,3.957,3.957,0,0,0,1.536-.77,3.06,3.06,0,0,0,.885-1.25,4.906,4.906,0,0,0,.284-1.74,5.688,5.688,0,0,0-.079-0.96,6.452,6.452,0,0,0-.205-0.87,6.887,6.887,0,0,0-.284-0.77c-0.1-.24-0.208-0.45-0.313-0.64h0.617v-1.26Zm-1.664,1.3a10.7,10.7,0,0,1,.553,1.37,4.987,4.987,0,0,1,.25,1.6,3.707,3.707,0,0,1-.211,1.32,1.987,1.987,0,0,1-.675.91,3,3,0,0,1-1.189.52,7.962,7.962,0,0,1-1.751.17h-1.34a7.884,7.884,0,0,1-2-.21,2.822,2.822,0,0,1-1.228-.63,2.094,2.094,0,0,1-.616-1.03,5.328,5.328,0,0,1-.171-1.43q0-.42.053-1.11c0.036-.45.09-0.95,0.162-1.48h8.159Zm1.664-11.71h-7.416a8.081,8.081,0,0,0-1.664.15,2.438,2.438,0,0,0-1.169.61,2.648,2.648,0,0,0-.69,1.25,8.035,8.035,0,0,0-.225,2.11q0,0.525.035,0.96c0.023,0.29.052,0.57,0.088,0.83s0.076,0.51.122,0.75,0.091,0.5.137,0.75h0.959c-0.033-.3-0.062-0.59-0.088-0.86s-0.049-.54-0.069-0.79-0.034-.51-0.044-0.76-0.014-.52-0.014-0.78a7.885,7.885,0,0,1,.112-1.48,1.752,1.752,0,0,1,.406-0.88,1.417,1.417,0,0,1,.8-0.43,6.587,6.587,0,0,1,1.3-.11h0.919v1.86a15.252,15.252,0,0,0,.132,2.12,4.289,4.289,0,0,0,.5,1.56,2.392,2.392,0,0,0,1.013.97,3.7,3.7,0,0,0,1.683.33h0.3a3.074,3.074,0,0,0,2.377-.83,3.486,3.486,0,0,0,.754-2.43,6.524,6.524,0,0,0-.1-1.15,6.61,6.61,0,0,0-.254-0.99,8.153,8.153,0,0,0-.338-0.84,7.481,7.481,0,0,0-.357-0.66h0.783v-1.26Zm-1.742,1.32a5.928,5.928,0,0,1,.318.58,7.407,7.407,0,0,1,.318.8,7.327,7.327,0,0,1,.245.93,5.137,5.137,0,0,1,.1,1,3.8,3.8,0,0,1-.1.92,1.711,1.711,0,0,1-.343.69,1.432,1.432,0,0,1-.626.44,2.631,2.631,0,0,1-.954.16h-0.381a2.794,2.794,0,0,1-1.174-.21,1.429,1.429,0,0,1-.7-0.64,3.055,3.055,0,0,1-.337-1.13,13.793,13.793,0,0,1-.088-1.69v-1.85h3.727Z" transform="translate(-141 -1516)"/>
  <path id="Independencia_del_proveedor" data-name="Independencia del proveedor" class="cls-6" d="M490.728,1803.69H475.837v1.34h14.891v-1.34Zm0-11.46h-6.9a10.069,10.069,0,0,0-1.834.14,3.3,3.3,0,0,0-1.341.52,2.355,2.355,0,0,0-.816,1.06,4.617,4.617,0,0,0-.274,1.73,5.506,5.506,0,0,0,.342,1.91,14.834,14.834,0,0,0,.822,1.85h-0.881v1.3h10.88v-1.3h-8.982a15.247,15.247,0,0,1-.758-1.94,5.766,5.766,0,0,1-.279-1.7,3.14,3.14,0,0,1,.162-1.09,1.413,1.413,0,0,1,.528-0.69,2.411,2.411,0,0,1,.964-0.36,8.6,8.6,0,0,1,1.467-.11h6.9v-1.32Zm0-10.76H475.24v1.31h4.569c-0.091.55-.155,1.03-0.191,1.46s-0.053.83-.053,1.22a6.737,6.737,0,0,0,.244,1.88,3.255,3.255,0,0,0,.842,1.42,3.822,3.822,0,0,0,1.585.91,8.208,8.208,0,0,0,2.465.32h1.34a8.6,8.6,0,0,0,2.246-.26,3.939,3.939,0,0,0,1.536-.76,3.027,3.027,0,0,0,.885-1.26,4.81,4.81,0,0,0,.284-1.73,5.621,5.621,0,0,0-.078-0.96,7.171,7.171,0,0,0-.206-0.88,6.517,6.517,0,0,0-.284-0.76c-0.1-.24-0.208-0.45-0.313-0.64h0.617v-1.27Zm-1.663,1.31a10.684,10.684,0,0,1,.552,1.36,5.065,5.065,0,0,1,.25,1.61,3.707,3.707,0,0,1-.211,1.32,2.04,2.04,0,0,1-.675.91,3.148,3.148,0,0,1-1.188.52,8.036,8.036,0,0,1-1.752.16H484.7a7.884,7.884,0,0,1-2-.21,2.814,2.814,0,0,1-1.228-.62,2.147,2.147,0,0,1-.616-1.03,5.38,5.38,0,0,1-.171-1.43q0-.42.054-1.11c0.035-.46.089-0.95,0.161-1.48h8.16Zm0.479-12.32q0.059,0.375.117,0.84c0.039,0.31.072,0.62,0.1,0.96s0.048,0.66.064,0.99,0.024,0.65.024,0.95a5.481,5.481,0,0,1-.254,1.83,2.5,2.5,0,0,1-.744,1.11,2.74,2.74,0,0,1-1.213.56,8.2,8.2,0,0,1-1.653.15h-0.245v-7.75h-0.665a9.355,9.355,0,0,0-2.368.27,4.487,4.487,0,0,0-1.727.82,3.477,3.477,0,0,0-1.056,1.41,5.279,5.279,0,0,0-.357,2.04,5.151,5.151,0,0,0,.362,2.03,3.541,3.541,0,0,0,1.046,1.4,4.358,4.358,0,0,0,1.688.82,8.769,8.769,0,0,0,2.275.27H485.7a9.622,9.622,0,0,0,2.358-.25,3.7,3.7,0,0,0,1.648-.82,3.446,3.446,0,0,0,.969-1.51,7.415,7.415,0,0,0,.318-2.34,16.75,16.75,0,0,0-.132-2.21c-0.088-.65-0.178-1.17-0.269-1.57h-1.047Zm-4.911,1.01v6.38l-0.177-.02a7.866,7.866,0,0,1-1.379-.12,3.391,3.391,0,0,1-1.2-.48,2.5,2.5,0,0,1-.847-0.97,3.594,3.594,0,0,1-.318-1.62,3.531,3.531,0,0,1,.313-1.6,2.431,2.431,0,0,1,.832-0.97,3.3,3.3,0,0,1,1.194-.48,8.031,8.031,0,0,1,1.408-.12h0.177Zm10.282-4.93h-4.187q0.117-.72.191-1.41a11.442,11.442,0,0,0,.073-1.18,6.4,6.4,0,0,0-.269-1.92,3.4,3.4,0,0,0-.9-1.46,4.2,4.2,0,0,0-1.659-.93,8.543,8.543,0,0,0-2.568-.33h-0.8a10.433,10.433,0,0,0-2.407.24,4.289,4.289,0,0,0-1.624.72,2.781,2.781,0,0,0-.915,1.21,4.577,4.577,0,0,0-.288,1.7,5.626,5.626,0,0,0,.3,1.81,7.139,7.139,0,0,0,.763,1.59h-0.783v1.24h15.067v-1.28Zm-9.314-5.93a8.607,8.607,0,0,1,2.094.22,3.3,3.3,0,0,1,1.306.65,2.223,2.223,0,0,1,.675,1.04,4.907,4.907,0,0,1,.191,1.43c0,0.33-.02.72-0.059,1.15s-0.1.91-.186,1.44h-7.973a13.7,13.7,0,0,1-.671-1.62,5,5,0,0,1-.249-1.55,3.458,3.458,0,0,1,.205-1.26,1.871,1.871,0,0,1,.685-0.85,3.49,3.49,0,0,1,1.257-.49,10.289,10.289,0,0,1,1.923-.16h0.8Zm3.943-11.83c0.039,0.25.078,0.53,0.117,0.83s0.072,0.63.1,0.96,0.048,0.66.064,1,0.024,0.65.024,0.95a5.458,5.458,0,0,1-.254,1.82,2.537,2.537,0,0,1-.744,1.12,2.74,2.74,0,0,1-1.213.56,8.2,8.2,0,0,1-1.653.15h-0.245v-7.75h-0.665a9.864,9.864,0,0,0-2.368.26,4.635,4.635,0,0,0-1.727.82,3.477,3.477,0,0,0-1.056,1.41,5.368,5.368,0,0,0-.357,2.05,5.151,5.151,0,0,0,.362,2.03,3.613,3.613,0,0,0,1.046,1.4,4.5,4.5,0,0,0,1.688.82,8.79,8.79,0,0,0,2.275.26H485.7a10.178,10.178,0,0,0,2.358-.24,3.923,3.923,0,0,0,1.648-.82,3.424,3.424,0,0,0,.969-1.52,7.306,7.306,0,0,0,.318-2.33,16.642,16.642,0,0,0-.132-2.21c-0.088-.65-0.178-1.18-0.269-1.57h-1.047Zm-4.911,1v6.39l-0.177-.02a7.015,7.015,0,0,1-1.379-.13,3.2,3.2,0,0,1-1.2-.47,2.533,2.533,0,0,1-.847-0.98,3.519,3.519,0,0,1-.318-1.61,3.576,3.576,0,0,1,.313-1.61,2.575,2.575,0,0,1,.832-0.97,3.121,3.121,0,0,1,1.194-.47,7.166,7.166,0,0,1,1.408-.13h0.177Zm6.1-12.16h-6.9a10,10,0,0,0-1.834.15,3.3,3.3,0,0,0-1.341.52,2.355,2.355,0,0,0-.816,1.06,4.581,4.581,0,0,0-.274,1.73,5.506,5.506,0,0,0,.342,1.91,15.515,15.515,0,0,0,.822,1.85h-0.881v1.3h10.88v-1.3h-8.982a15.85,15.85,0,0,1-.758-1.94,5.818,5.818,0,0,1-.279-1.7,3.1,3.1,0,0,1,.162-1.09,1.413,1.413,0,0,1,.528-0.69,2.411,2.411,0,0,1,.964-0.36,8.6,8.6,0,0,1,1.467-.11h6.9v-1.33Zm0-10.75H475.24v1.31h4.569c-0.091.55-.155,1.03-0.191,1.46s-0.053.83-.053,1.21a6.687,6.687,0,0,0,.244,1.88,3.233,3.233,0,0,0,.842,1.43,3.934,3.934,0,0,0,1.585.91,8.208,8.208,0,0,0,2.465.32h1.34a8.6,8.6,0,0,0,2.246-.26,3.939,3.939,0,0,0,1.536-.76,3.027,3.027,0,0,0,.885-1.26,4.867,4.867,0,0,0,.284-1.74,5.8,5.8,0,0,0-.078-0.96,7.007,7.007,0,0,0-.206-0.87,7.466,7.466,0,0,0-.284-0.77q-0.156-.345-0.313-0.63h0.617v-1.27Zm-1.663,1.31a10.684,10.684,0,0,1,.552,1.36,5.021,5.021,0,0,1,.25,1.61,3.707,3.707,0,0,1-.211,1.32,2.04,2.04,0,0,1-.675.91,3.313,3.313,0,0,1-1.188.52,8.036,8.036,0,0,1-1.752.16H484.7a7.884,7.884,0,0,1-2-.21,2.925,2.925,0,0,1-1.228-.62,2.2,2.2,0,0,1-.616-1.03,5.38,5.38,0,0,1-.171-1.43q0-.42.054-1.11c0.035-.46.089-0.95,0.161-1.48h8.16Zm0.479-12.32q0.059,0.375.117,0.84c0.039,0.3.072,0.62,0.1,0.95s0.048,0.67.064,1,0.024,0.65.024,0.95a5.522,5.522,0,0,1-.254,1.83,2.5,2.5,0,0,1-.744,1.11,2.74,2.74,0,0,1-1.213.56,8.2,8.2,0,0,1-1.653.15h-0.245v-7.75h-0.665a9.864,9.864,0,0,0-2.368.26,4.635,4.635,0,0,0-1.727.82,3.443,3.443,0,0,0-1.056,1.42,5.279,5.279,0,0,0-.357,2.04,5.151,5.151,0,0,0,.362,2.03,3.613,3.613,0,0,0,1.046,1.4,4.5,4.5,0,0,0,1.688.82,8.769,8.769,0,0,0,2.275.27H485.7a10.136,10.136,0,0,0,2.358-.25,3.81,3.81,0,0,0,1.648-.82,3.424,3.424,0,0,0,.969-1.52,7.306,7.306,0,0,0,.318-2.33,16.75,16.75,0,0,0-.132-2.21c-0.088-.65-0.178-1.18-0.269-1.57h-1.047Zm-4.911,1v6.39l-0.177-.02a7.015,7.015,0,0,1-1.379-.13,3.2,3.2,0,0,1-1.2-.47,2.5,2.5,0,0,1-.847-0.97,4.291,4.291,0,0,1,0-3.23,2.469,2.469,0,0,1,.832-0.96,3.133,3.133,0,0,1,1.194-.48,8.019,8.019,0,0,1,1.408-.13h0.177Zm6.1-12.15h-6.9a10.069,10.069,0,0,0-1.834.14,3.3,3.3,0,0,0-1.341.52,2.355,2.355,0,0,0-.816,1.06,4.617,4.617,0,0,0-.274,1.73,5.506,5.506,0,0,0,.342,1.91,15.515,15.515,0,0,0,.822,1.85h-0.881v1.3h10.88v-1.3h-8.982a15.247,15.247,0,0,1-.758-1.94,5.766,5.766,0,0,1-.279-1.7,3.14,3.14,0,0,1,.162-1.09,1.413,1.413,0,0,1,.528-0.69,2.411,2.411,0,0,1,.964-0.36,8.6,8.6,0,0,1,1.467-.11h6.9v-1.32Zm-1.086-9.59q0.127,1.035.176,1.71t0.049,1.11a5.175,5.175,0,0,1-.167,1.38,2.133,2.133,0,0,1-.611,1.01,2.916,2.916,0,0,1-1.218.61,7.87,7.87,0,0,1-2,.2h-1.194a7.668,7.668,0,0,1-1.966-.21,2.916,2.916,0,0,1-1.218-.61,2.174,2.174,0,0,1-.616-1.01,4.983,4.983,0,0,1-.172-1.37q0-.465.044-1.14t0.152-1.68h-1q-0.108.5-.225,1.26a11.368,11.368,0,0,0-.117,1.73,4.105,4.105,0,0,0,1.242,3.29,5.867,5.867,0,0,0,3.874,1.07h1.194a9.089,9.089,0,0,0,2.3-.26,3.936,3.936,0,0,0,1.6-.8,3.161,3.161,0,0,0,.925-1.35,5.76,5.76,0,0,0,.3-1.95,11.336,11.336,0,0,0-.113-1.69c-0.075-.5-0.151-0.93-0.229-1.3h-1.008Zm1.086-3.53h-10.88v1.32h10.88v-1.32Zm-13-.02H475.24v1.34h2.485v-1.34Zm13-10.49h-7.416a7.384,7.384,0,0,0-1.663.16,2.341,2.341,0,0,0-1.17.6,2.7,2.7,0,0,0-.689,1.25,8.087,8.087,0,0,0-.225,2.11c0,0.35.011,0.68,0.034,0.97s0.052,0.56.088,0.82,0.077,0.51.122,0.76,0.092,0.49.137,0.75h0.959q-0.049-.465-0.088-0.87c-0.026-.27-0.049-0.54-0.069-0.79s-0.034-.51-0.044-0.76-0.014-.51-0.014-0.78a7.885,7.885,0,0,1,.112-1.48,1.8,1.8,0,0,1,.406-0.88,1.477,1.477,0,0,1,.8-0.43,6.569,6.569,0,0,1,1.3-.11h0.919v1.86a14.988,14.988,0,0,0,.133,2.12,4.409,4.409,0,0,0,.5,1.57,2.434,2.434,0,0,0,1.013.96,3.706,3.706,0,0,0,1.683.33h0.3a3.041,3.041,0,0,0,2.378-.83,3.481,3.481,0,0,0,.753-2.42,6.442,6.442,0,0,0-.1-1.15,7.085,7.085,0,0,0-.254-1,7.947,7.947,0,0,0-.338-0.83,6.1,6.1,0,0,0-.357-0.66h0.783v-1.27Zm-1.742,1.32a5.189,5.189,0,0,1,.318.59,7.21,7.21,0,0,1,.318.79,7.327,7.327,0,0,1,.245.93,5.137,5.137,0,0,1,.1,1,3.8,3.8,0,0,1-.1.92,1.82,1.82,0,0,1-.343.7,1.518,1.518,0,0,1-.626.44,2.645,2.645,0,0,1-.954.15h-0.381a2.976,2.976,0,0,1-1.174-.2,1.534,1.534,0,0,1-.7-0.64,3.172,3.172,0,0,1-.337-1.14,13.619,13.619,0,0,1-.088-1.68v-1.86h3.727Zm1.742-15.65H475.24v1.31h4.569c-0.091.55-.155,1.04-0.191,1.46s-0.053.83-.053,1.22a6.737,6.737,0,0,0,.244,1.88,3.2,3.2,0,0,0,.842,1.42,3.822,3.822,0,0,0,1.585.91,8.208,8.208,0,0,0,2.465.32h1.34a8.635,8.635,0,0,0,2.246-.25,3.95,3.95,0,0,0,1.536-.77,3.027,3.027,0,0,0,.885-1.26,4.81,4.81,0,0,0,.284-1.73,5.621,5.621,0,0,0-.078-0.96,7.171,7.171,0,0,0-.206-0.88,6.517,6.517,0,0,0-.284-0.76c-0.1-.24-0.208-0.45-0.313-0.64h0.617v-1.27Zm-1.663,1.31a11.32,11.32,0,0,1,.552,1.36,5.065,5.065,0,0,1,.25,1.61,3.707,3.707,0,0,1-.211,1.32,2.04,2.04,0,0,1-.675.91,3.148,3.148,0,0,1-1.188.52,7.978,7.978,0,0,1-1.752.17H484.7a7.4,7.4,0,0,1-2-.22,2.814,2.814,0,0,1-1.228-.62,2.147,2.147,0,0,1-.616-1.03,5.38,5.38,0,0,1-.171-1.43q0-.42.054-1.11c0.035-.46.089-0.95,0.161-1.48h8.16Zm0.479-12.31c0.039,0.24.078,0.52,0.117,0.83s0.072,0.63.1,0.96,0.048,0.66.064,0.99,0.024,0.65.024,0.95a5.481,5.481,0,0,1-.254,1.83,2.5,2.5,0,0,1-.744,1.11,2.74,2.74,0,0,1-1.213.56,8.2,8.2,0,0,1-1.653.15h-0.245v-7.75h-0.665a9.355,9.355,0,0,0-2.368.27,4.487,4.487,0,0,0-1.727.82,3.477,3.477,0,0,0-1.056,1.41,5.3,5.3,0,0,0-.357,2.05,5.1,5.1,0,0,0,.362,2.02,3.541,3.541,0,0,0,1.046,1.4,4.358,4.358,0,0,0,1.688.82,8.769,8.769,0,0,0,2.275.27H485.7a9.622,9.622,0,0,0,2.358-.25,3.7,3.7,0,0,0,1.648-.82,3.39,3.39,0,0,0,.969-1.51,7.415,7.415,0,0,0,.318-2.34,16.592,16.592,0,0,0-.132-2.2c-0.088-.66-0.178-1.18-0.269-1.57h-1.047Zm-4.911,1v6.38l-0.177-.02a7.866,7.866,0,0,1-1.379-.12,3.391,3.391,0,0,1-1.2-.48,2.5,2.5,0,0,1-.847-0.97,4.266,4.266,0,0,1,0-3.22,2.431,2.431,0,0,1,.832-0.97,3.3,3.3,0,0,1,1.194-.48,8.031,8.031,0,0,1,1.408-.12h0.177Zm6.1-5.03H475.24v1.31h15.488v-1.31Zm4.187-7.8h-4.187q0.117-.72.191-1.41a11.442,11.442,0,0,0,.073-1.18,6.442,6.442,0,0,0-.269-1.92,3.4,3.4,0,0,0-.9-1.46,4.2,4.2,0,0,0-1.659-.93,8.543,8.543,0,0,0-2.568-.33h-0.8a10.433,10.433,0,0,0-2.407.24,4.289,4.289,0,0,0-1.624.72,2.781,2.781,0,0,0-.915,1.21,4.6,4.6,0,0,0-.288,1.71,5.566,5.566,0,0,0,.3,1.8,6.739,6.739,0,0,0,.763,1.59h-0.783v1.25h15.067v-1.29ZM485.6,1638a8.137,8.137,0,0,1,2.094.22,3.164,3.164,0,0,1,1.306.64,2.223,2.223,0,0,1,.675,1.04,4.955,4.955,0,0,1,.191,1.43c0,0.33-.02.72-0.059,1.15s-0.1.91-.186,1.44h-7.973a13.037,13.037,0,0,1-.671-1.62,4.948,4.948,0,0,1-.249-1.55,3.365,3.365,0,0,1,.205-1.25,1.9,1.9,0,0,1,.685-0.86,3.49,3.49,0,0,1,1.257-.49,10.385,10.385,0,0,1,1.923-.15h0.8Zm5.127-4.93h-8.982a6.035,6.035,0,0,1-.455-0.98,9.015,9.015,0,0,1-.313-1.07,9.169,9.169,0,0,1-.176-1.07,9.664,9.664,0,0,1-.054-0.98h-1.183q0,0.465.053,0.99a7.412,7.412,0,0,0,.186,1.05,6.994,6.994,0,0,0,.357,1.05,5.485,5.485,0,0,0,.568,1.01h-0.881v1.29h10.88v-1.29Zm-6.027-14.16a5.777,5.777,0,0,0-3.82,1.11,5.128,5.128,0,0,0,0,6.86,5.777,5.777,0,0,0,3.82,1.11h1.155a5.774,5.774,0,0,0,3.83-1.11,5.157,5.157,0,0,0,0-6.86,5.774,5.774,0,0,0-3.83-1.11H484.7Zm1.155,1.31a7.834,7.834,0,0,1,1.8.18,3.283,3.283,0,0,1,1.242.58,2.317,2.317,0,0,1,.719,1,4.781,4.781,0,0,1,0,2.93,2.29,2.29,0,0,1-.719,1.01,3.283,3.283,0,0,1-1.242.58,7.834,7.834,0,0,1-1.8.18H484.7a7.77,7.77,0,0,1-1.8-.18,3.108,3.108,0,0,1-1.233-.59,2.3,2.3,0,0,1-.714-1.01,4.749,4.749,0,0,1,0-2.92,2.332,2.332,0,0,1,.714-1,3.24,3.24,0,0,1,1.233-.58,7.77,7.77,0,0,1,1.8-.18h1.155Zm4.872-8.02-10.88-3.76v1.43l7.358,2.43c0.469,0.15.916,0.28,1.34,0.41s0.851,0.24,1.282.37v0.04c-0.431.12-.86,0.24-1.287,0.37s-0.872.27-1.335,0.42l-7.358,2.45v1.42l10.88-3.75v-1.83Zm-1.184-13.56c0.039,0.25.078,0.53,0.117,0.83s0.072,0.63.1,0.96,0.048,0.66.064,1,0.024,0.65.024,0.95a5.458,5.458,0,0,1-.254,1.82,2.537,2.537,0,0,1-.744,1.12,2.74,2.74,0,0,1-1.213.56,8.2,8.2,0,0,1-1.653.15h-0.245v-7.75h-0.665a9.864,9.864,0,0,0-2.368.26,4.635,4.635,0,0,0-1.727.82,3.477,3.477,0,0,0-1.056,1.41,5.368,5.368,0,0,0-.357,2.05,5.151,5.151,0,0,0,.362,2.03,3.613,3.613,0,0,0,1.046,1.4,4.5,4.5,0,0,0,1.688.82,8.79,8.79,0,0,0,2.275.26H485.7a10.178,10.178,0,0,0,2.358-.24,3.923,3.923,0,0,0,1.648-.82,3.424,3.424,0,0,0,.969-1.52,7.306,7.306,0,0,0,.318-2.33,16.642,16.642,0,0,0-.132-2.21c-0.088-.65-0.178-1.18-0.269-1.57h-1.047Zm-4.911,1v6.39l-0.177-.02a7.015,7.015,0,0,1-1.379-.13,3.2,3.2,0,0,1-1.2-.47,2.533,2.533,0,0,1-.847-0.98,3.519,3.519,0,0,1-.318-1.61,3.576,3.576,0,0,1,.313-1.61,2.575,2.575,0,0,1,.832-0.97,3.121,3.121,0,0,1,1.194-.47,7.166,7.166,0,0,1,1.408-.13h0.177Zm4.911-11.83c0.039,0.25.078,0.52,0.117,0.83s0.072,0.63.1,0.96,0.048,0.66.064,0.99,0.024,0.66.024,0.96a5.458,5.458,0,0,1-.254,1.82,2.5,2.5,0,0,1-.744,1.11,2.635,2.635,0,0,1-1.213.56,7.492,7.492,0,0,1-1.653.16h-0.245v-7.75h-0.665a9.382,9.382,0,0,0-2.368.26,4.635,4.635,0,0,0-1.727.82,3.477,3.477,0,0,0-1.056,1.41,5.332,5.332,0,0,0-.357,2.05,5.1,5.1,0,0,0,.362,2.02,3.575,3.575,0,0,0,1.046,1.41,4.5,4.5,0,0,0,1.688.82,9.247,9.247,0,0,0,2.275.26H485.7a10.178,10.178,0,0,0,2.358-.24,3.923,3.923,0,0,0,1.648-.82,3.481,3.481,0,0,0,.969-1.52,7.392,7.392,0,0,0,.318-2.33,16.642,16.642,0,0,0-.132-2.21c-0.088-.66-0.178-1.18-0.269-1.57h-1.047Zm-4.911,1v6.39l-0.177-.02a7.868,7.868,0,0,1-1.379-.13,3.215,3.215,0,0,1-1.2-.48,2.432,2.432,0,0,1-.847-0.97,3.519,3.519,0,0,1-.318-1.61,3.576,3.576,0,0,1,.313-1.61,2.5,2.5,0,0,1,.832-0.97,3.121,3.121,0,0,1,1.194-.47,7.166,7.166,0,0,1,1.408-.13h0.177Zm6.1-11.66H475.24v1.31h4.569c-0.091.55-.155,1.03-0.191,1.46s-0.053.83-.053,1.22a6.737,6.737,0,0,0,.244,1.88,3.255,3.255,0,0,0,.842,1.42,3.822,3.822,0,0,0,1.585.91,8.208,8.208,0,0,0,2.465.32h1.34a8.6,8.6,0,0,0,2.246-.26,3.939,3.939,0,0,0,1.536-.76,3.027,3.027,0,0,0,.885-1.26,4.81,4.81,0,0,0,.284-1.73,5.828,5.828,0,0,0-.078-0.97,7.46,7.46,0,0,0-.206-0.87,6.517,6.517,0,0,0-.284-0.76c-0.1-.24-0.208-0.45-0.313-0.64h0.617v-1.27Zm-1.663,1.31a10.684,10.684,0,0,1,.552,1.36,5.065,5.065,0,0,1,.25,1.61,3.707,3.707,0,0,1-.211,1.32,2.04,2.04,0,0,1-.675.91,3.148,3.148,0,0,1-1.188.52,8.036,8.036,0,0,1-1.752.16H484.7a7.884,7.884,0,0,1-2-.21,2.814,2.814,0,0,1-1.228-.62,2.147,2.147,0,0,1-.616-1.03,5.38,5.38,0,0,1-.171-1.43q0-.42.054-1.11c0.035-.46.089-0.95,0.161-1.48h8.16Zm-4.364-12.72a5.777,5.777,0,0,0-3.82,1.11,5.128,5.128,0,0,0,0,6.86,5.777,5.777,0,0,0,3.82,1.11h1.155a5.774,5.774,0,0,0,3.83-1.11,5.157,5.157,0,0,0,0-6.86,5.774,5.774,0,0,0-3.83-1.11H484.7Zm1.155,1.31a7.834,7.834,0,0,1,1.8.18,3.283,3.283,0,0,1,1.242.58,2.317,2.317,0,0,1,.719,1,4.781,4.781,0,0,1,0,2.93,2.29,2.29,0,0,1-.719,1.01,3.283,3.283,0,0,1-1.242.58,7.834,7.834,0,0,1-1.8.18H484.7a7.77,7.77,0,0,1-1.8-.18,3.108,3.108,0,0,1-1.233-.59,2.3,2.3,0,0,1-.714-1.01,4.749,4.749,0,0,1,0-2.92,2.332,2.332,0,0,1,.714-1,3.24,3.24,0,0,1,1.233-.58,7.77,7.77,0,0,1,1.8-.18h1.155Zm4.872-4.93h-8.982a6.035,6.035,0,0,1-.455-0.98,9.015,9.015,0,0,1-.313-1.07,9.169,9.169,0,0,1-.176-1.07,9.664,9.664,0,0,1-.054-0.98h-1.183q0,0.465.053,0.99a7.412,7.412,0,0,0,.186,1.05,7.107,7.107,0,0,0,.357,1.06,5.407,5.407,0,0,0,.568,1h-0.881v1.29h10.88v-1.29Z" transform="translate(-141 -1516)"/>
  <path id="Open_Source" data-name="Open Source" class="cls-7" d="M289.547,1921.67a10.876,10.876,0,0,0-6.06,1.66,11.545,11.545,0,0,0-4.187,4.79,18.148,18.148,0,0,0-.174,14.29,10.446,10.446,0,0,0,4.03,4.6,11.637,11.637,0,0,0,6.111,1.63,10.876,10.876,0,0,0,6.06-1.66,11.545,11.545,0,0,0,4.187-4.79,18.149,18.149,0,0,0,.174-14.29,10.452,10.452,0,0,0-4.03-4.6,11.637,11.637,0,0,0-6.111-1.63h0Zm-0.15.66a6.167,6.167,0,0,1,4.094,1.61,10.552,10.552,0,0,1,2.883,4.5,19.176,19.176,0,0,1,1.015,6.71,21.266,21.266,0,0,1-1.029,6.69,10.51,10.51,0,0,1-2.794,4.54,5.909,5.909,0,0,1-4.149,1.6,6.2,6.2,0,0,1-4.1-1.61,10.49,10.49,0,0,1-2.892-4.5,19.234,19.234,0,0,1-1.016-6.72,21.36,21.36,0,0,1,1.029-6.69,10.488,10.488,0,0,1,2.8-4.53,5.94,5.94,0,0,1,4.158-1.6h0Zm20.551,10.58,0.035-3.87a12.164,12.164,0,0,1-3.825.47c-0.753-.01-1.513-0.05-2.277-0.13l-0.007.77a2.648,2.648,0,0,1,2.172.79,3.94,3.94,0,0,1,.6,2.47l-0.167,18.46a2.379,2.379,0,0,1-.554,1.78,2.816,2.816,0,0,1-1.888.47l-0.007.77c0.215-.01.736-0.03,1.561-0.07s1.627-.06,2.4-0.05c1.052,0.01,2.119.04,3.2,0.1s1.778,0.09,2.089.11l0.007-.77a4.879,4.879,0,0,1-2.649-.61,2.279,2.279,0,0,1-.86-2.07l0.042-4.69a4.443,4.443,0,0,0,1.754,1.46,5.826,5.826,0,0,0,2.533.57,7.315,7.315,0,0,0,4.74-1.5,9.009,9.009,0,0,0,2.825-3.97,15.313,15.313,0,0,0,.944-5.26,12.4,12.4,0,0,0-.843-4.93,7.033,7.033,0,0,0-2.411-3.14,6.094,6.094,0,0,0-3.5-1.08,6.179,6.179,0,0,0-3.525,1,6.66,6.66,0,0,0-2.394,2.92h0Zm-0.115,12.71,0.1-10.96a6.766,6.766,0,0,1,1.923-3.43,4.359,4.359,0,0,1,3-1.16q4.269,0.045,4.192,8.54-0.085,9.45-5.34,9.41a4.288,4.288,0,0,1-2.362-.66,4.12,4.12,0,0,1-1.509-1.74h0Zm31.457-1.43-0.733-.29a5.654,5.654,0,0,1-5.431,3.62,4.5,4.5,0,0,1-2.718-.99,6.87,6.87,0,0,1-2.064-2.8,10.359,10.359,0,0,1-.76-4.23,18.266,18.266,0,0,1,.146-2.34l11.479,0.11c0.025-2.71-.552-4.73-1.73-6.08a6.469,6.469,0,0,0-5.066-2.04,7.707,7.707,0,0,0-4.4,1.23,8.135,8.135,0,0,0-2.929,3.57,13.766,13.766,0,0,0-1.073,5.52,11.654,11.654,0,0,0,.96,4.98,7.674,7.674,0,0,0,2.884,3.37,8.468,8.468,0,0,0,4.518,1.23,7.088,7.088,0,0,0,3.154-.67,7.361,7.361,0,0,0,3.76-4.19h0Zm-3.608-7.65-8-.08a11.628,11.628,0,0,1,.867-3.7,5.424,5.424,0,0,1,1.626-2.2,3.325,3.325,0,0,1,2.087-.71,2.588,2.588,0,0,1,1.983.91,5.518,5.518,0,0,1,1.162,2.43,11.952,11.952,0,0,1,.274,3.35h0Zm12.438-2.83,0.039-4.31a12.156,12.156,0,0,1-3.825.47c-0.753-.01-1.512-0.05-2.276-0.13l-0.007.77a2.648,2.648,0,0,1,2.172.79,3.934,3.934,0,0,1,.6,2.47l-0.1,11.47a3.709,3.709,0,0,1-.293,1.59,1.574,1.574,0,0,1-.886.8,4.644,4.644,0,0,1-1.643.21l-0.007.77c2.249-.07,3.72-0.11,4.414-0.1s2.068,0.07,4.124.18l0.007-.77a3.653,3.653,0,0,1-1.433-.24,1.462,1.462,0,0,1-.755-0.82,4.168,4.168,0,0,1-.228-1.59l0.074-8.14a8.582,8.582,0,0,1,.676-3.38,5.611,5.611,0,0,1,1.842-2.39,4.341,4.341,0,0,1,2.689-.85,2.813,2.813,0,0,1,1.906.57,2.6,2.6,0,0,1,.847,1.45,10.1,10.1,0,0,1,.187,2.22l-0.1,10.59a4.194,4.194,0,0,1-.257,1.59,1.465,1.465,0,0,1-.76.8,3.482,3.482,0,0,1-1.428.22l-0.007.77c2.057-.08,3.427-0.11,4.109-0.11s2.163,0.07,4.411.19l0.006-.77a4.728,4.728,0,0,1-1.639-.25,1.585,1.585,0,0,1-.871-0.81,3.759,3.759,0,0,1-.264-1.6l0.089-9.78a11.9,11.9,0,0,0-.27-2.97,4.47,4.47,0,0,0-.96-1.86,5.2,5.2,0,0,0-3.88-1.41,6.383,6.383,0,0,0-6.3,4.36h0Zm27.169,6.67-0.843-.01q-0.062,6.78-.223,8.79h0.843a4.47,4.47,0,0,1,.3-1.22,0.562,0.562,0,0,1,.524-0.38,2.711,2.711,0,0,1,1.251.53,9.746,9.746,0,0,0,2.125,1.01,9.563,9.563,0,0,0,2.885.39,9.417,9.417,0,0,0,3.962-.75,6.451,6.451,0,0,0,2.828-2.32,6.762,6.762,0,0,0,1.075-3.81,6.488,6.488,0,0,0-.778-3.28,8.5,8.5,0,0,0-2.13-2.48,41.382,41.382,0,0,0-3.636-2.55c-0.369-.23-1.085-0.67-2.15-1.33a14.472,14.472,0,0,1-2.787-2.22,4.364,4.364,0,0,1-1.173-3.21,4.278,4.278,0,0,1,.594-2.22,3.936,3.936,0,0,1,1.61-1.48,4.783,4.783,0,0,1,2.319-.52,5.166,5.166,0,0,1,3.228,1.02,6.266,6.266,0,0,1,1.95,2.6,11.088,11.088,0,0,1,.785,3.48l0.843,0.01c0.032-3.55.114-6.05,0.247-7.48h-0.843a4.507,4.507,0,0,1-.3,1.22,0.576,0.576,0,0,1-.524.38,2.711,2.711,0,0,1-1.251-.53,13.11,13.11,0,0,0-1.177-.72,5.743,5.743,0,0,0-1.35-.48,9.016,9.016,0,0,0-1.945-.2,8.361,8.361,0,0,0-3.459.67,5.849,5.849,0,0,0-2.53,2.12,6.236,6.236,0,0,0-.973,3.5,6.5,6.5,0,0,0,.821,3.39,8.759,8.759,0,0,0,2.157,2.5,35.636,35.636,0,0,0,3.494,2.38,30.76,30.76,0,0,1,3.138,2.14,7.786,7.786,0,0,1,1.856,2.06,4.734,4.734,0,0,1,.667,2.54,5.176,5.176,0,0,1-.7,2.74,4.12,4.12,0,0,1-1.772,1.6,5.319,5.319,0,0,1-2.346.5,5.494,5.494,0,0,1-4.84-2.34,11.919,11.919,0,0,1-1.775-6.04h0Zm26.7-10.6a8.573,8.573,0,0,0-4.305,1.02,7.25,7.25,0,0,0-2.989,3.25,15.125,15.125,0,0,0-.1,11.25,7.27,7.27,0,0,0,2.93,3.29,9.353,9.353,0,0,0,8.592.07,7.2,7.2,0,0,0,2.989-3.23,15.13,15.13,0,0,0,.1-11.25,7.323,7.323,0,0,0-2.93-3.31,8.6,8.6,0,0,0-4.286-1.09h0Zm-0.006.73a3.911,3.911,0,0,1,3.468,2.29q1.262,2.265,1.219,6.99c-0.028,3.13-.477,5.45-1.345,6.93a3.829,3.829,0,0,1-6.977-.06q-1.263-2.25-1.22-6.96,0.043-4.725,1.346-6.96a3.9,3.9,0,0,1,3.509-2.23h0Zm27.668,14.94,0.138-15.31a12.2,12.2,0,0,1-3.825.46c-0.753,0-1.512-.05-2.277-0.12l-0.007.76a2.681,2.681,0,0,1,2.173.79,3.974,3.974,0,0,1,.6,2.48l-0.068,7.56a8.537,8.537,0,0,1-.676,3.36,5.8,5.8,0,0,1-1.8,2.38,4.09,4.09,0,0,1-2.555.86,2.7,2.7,0,0,1-1.842-.57,2.388,2.388,0,0,1-.759-1.41,12.655,12.655,0,0,1-.141-2.25l0.131-14.4a12.292,12.292,0,0,1-3.825.46c-0.754,0-1.513-.05-2.277-0.12l-0.007.77a2.649,2.649,0,0,1,2.163.78,4.018,4.018,0,0,1,.588,2.48l-0.083,9.19a12.75,12.75,0,0,0,.251,2.94,4.119,4.119,0,0,0,.925,1.87,5.071,5.071,0,0,0,3.808,1.43,6.267,6.267,0,0,0,3.534-1.04,6.956,6.956,0,0,0,2.532-3.31l-0.039,4.33a11.391,11.391,0,0,1,3.825-.48,21.88,21.88,0,0,1,2.277.12l0.007-.77a2.647,2.647,0,0,1-2.173-.78,3.883,3.883,0,0,1-.6-2.46h0Zm10.858-10.64,0.042-4.58a12.164,12.164,0,0,1-3.825.47c-0.754-.01-1.513-0.05-2.277-0.13l-0.007.77a2.648,2.648,0,0,1,2.172.79,3.94,3.94,0,0,1,.6,2.47l-0.1,11.47a3.725,3.725,0,0,1-.292,1.59,1.577,1.577,0,0,1-.886.8,4.861,4.861,0,0,1-1.644.22l-0.007.76c2.249-.07,3.7-0.11,4.342-0.1,0.753,0.01,2.636.07,5.649,0.19l0.007-.76a5.358,5.358,0,0,1-2.918-.68,2.649,2.649,0,0,1-.947-2.37l0.07-7.76a8.063,8.063,0,0,1,.691-3.03,7.745,7.745,0,0,1,1.854-2.72,3.676,3.676,0,0,1,2.629-1.09,0.875,0.875,0,0,1,.768.37,2.291,2.291,0,0,0-1.274,1.97,1.758,1.758,0,0,0,.562,1.39,2,2,0,0,0,1.376.52,1.9,1.9,0,0,0,1.531-.65,2.459,2.459,0,0,0,.589-1.64,2.627,2.627,0,0,0-.418-1.45,3.1,3.1,0,0,0-1.183-1.06,3.858,3.858,0,0,0-1.727-.4,4.171,4.171,0,0,0-2.285.68,6.887,6.887,0,0,0-1.872,1.76,8.854,8.854,0,0,0-1.213,2.2h0Zm24.93,10.33-0.7-.25a6.621,6.621,0,0,1-2.366,2.84,5.443,5.443,0,0,1-3,.88,4.477,4.477,0,0,1-3.8-2.1c-0.969-1.38-1.439-3.6-1.411-6.64a14.858,14.858,0,0,1,.819-5.25,6.113,6.113,0,0,1,1.98-2.84,4.193,4.193,0,0,1,2.537-.84,4.728,4.728,0,0,1,1.987.46,2.73,2.73,0,0,1,1.3,1.11,2.089,2.089,0,0,0-1.11.7,1.953,1.953,0,0,0-.451,1.31,1.664,1.664,0,0,0,.57,1.35,2.2,2.2,0,0,0,1.44.51,1.913,1.913,0,0,0,1.395-.54,2.03,2.03,0,0,0,.561-1.5,3.356,3.356,0,0,0-1.7-2.84,7.687,7.687,0,0,0-4.258-1.21,7.968,7.968,0,0,0-4.442,1.25,8.553,8.553,0,0,0-3.073,3.58,12.339,12.339,0,0,0-1.132,5.28,11.717,11.717,0,0,0,1.02,5.16,8.029,8.029,0,0,0,2.884,3.4,7.489,7.489,0,0,0,4.133,1.22,6.744,6.744,0,0,0,3.244-.71,6.669,6.669,0,0,0,2.268-1.88,8.191,8.191,0,0,0,1.3-2.45h0Zm18.275,0.35-0.733-.29a5.632,5.632,0,0,1-5.432,3.61,4.434,4.434,0,0,1-2.717-.99,6.769,6.769,0,0,1-2.065-2.79,10.392,10.392,0,0,1-.76-4.23,18.244,18.244,0,0,1,.147-2.34l11.479,0.1c0.024-2.7-.552-4.73-1.73-6.07a6.471,6.471,0,0,0-5.067-2.04,7.7,7.7,0,0,0-4.4,1.22,8.171,8.171,0,0,0-2.929,3.58,13.784,13.784,0,0,0-1.072,5.52,11.623,11.623,0,0,0,.959,4.97,7.654,7.654,0,0,0,2.885,3.38,8.468,8.468,0,0,0,4.518,1.23,7.088,7.088,0,0,0,3.154-.67,7.261,7.261,0,0,0,2.366-1.8,7.372,7.372,0,0,0,1.394-2.39h0Zm-3.608-7.66-8-.07a11.627,11.627,0,0,1,.868-3.7,5.532,5.532,0,0,1,1.625-2.21,3.377,3.377,0,0,1,2.087-.7,2.585,2.585,0,0,1,1.983.91,5.507,5.507,0,0,1,1.162,2.43,11.911,11.911,0,0,1,.275,3.34h0Z" transform="translate(-141 -1516)"/>
</svg>
